<svg width="586.667" height="613.333" viewBox="0 0 440 460" xmlns="http://www.w3.org/2000/svg" xmlns:xlink="http://www.w3.org/1999/xlink" overflow="hidden"><g fill="#FFFFFF" transform="matrix(0.1 0 0 -0.1 0 460)"><path d="M2134 4113C2127 4109 2120 4094 2119 4080 2115 4058 2109 4055 2072 4052 2042 4050 2030 4052 2035 4060 2044 4075 2022 4100 1998 4100 1988 4100 1957 4089 1930 4075 1902 4061 1863 4050 1841 4050 1819 4050 1789 4045 1775 4040 1752 4031 1748 4025 1752 3999 1756 3972 1753 3966 1722 3952 1688 3936 1687 3936 1672 3958 1651 3990 1626 3985 1577 3942 1554 3921 1514 3896 1489 3886 1426 3863 1402 3836 1419 3808 1430 3791 1428 3785 1409 3764 1382 3735 1373 3734 1347 3757 1329 3774 1327 3773 1290 3730 1268 3705 1226 3660 1195 3630 1140 3575 1127 3544 1155 3534 1176 3526 1174 3507 1149 3476 1134 3456 1124 3452 1117 3459 1094 3482 1069 3470 1050 3428 1039 3404 1030 3378 1030 3370 1030 3362 1014 3333 995 3306 955 3249 948 3200 980 3200 1003 3200 1006 3175 989 3136 979 3116 972 3112 950 3117 925 3121 921 3118 910 3085 903 3065 900 3034 903 3017 906 2998 899 2960 887 2924 863 2855 868 2830 905 2830 928 2830 930 2826 930 2786 930 2745 928 2741 903 2738 868 2734 862 2699 883 2636 892 2611 896 2574 893 2543 887 2482 901 2450 935 2450 961 2450 980 2425 980 2391 980 2379 973 2370 965 2370 926 2370 929 2317 971 2258 982 2243 999 2202 1008 2168 1027 2101 1049 2078 1078 2097 1093 2106 1099 2104 1111 2086 1136 2048 1137 2036 1116 2019 1097 2003 1097 2002 1114 1975 1124 1960 1151 1929 1173 1906 1196 1883 1224 1849 1235 1830 1263 1783 1287 1770 1305 1793 1315 1808 1323 1809 1338 1801 1375 1781 1384 1762 1370 1735 1353 1703 1368 1684 1435 1654 1463 1642 1496 1620 1510 1605 1524 1590 1548 1571 1564 1563 1592 1548 1595 1549 1612 1570 1625 1586 1635 1590 1652 1585 1690 1573 1700 1560 1694 1530 1687 1496 1706 1483 1777 1473 1803 1470 1847 1456 1873 1443 1931 1414 1964 1416 1968 1448 1972 1471 1992 1476 2037 1464 2055 1459 2059 1453 2054 1434 2045 1399 2084 1384 2153 1396 2184 1402 2220 1402 2239 1397 2257 1393 2288 1390 2308 1392 2339 1394 2346 1399 2349 1420 2353 1450 2366 1460 2402 1460 2422 1460 2429 1454 2432 1437 2436 1406 2481 1403 2539 1429 2564 1440 2611 1452 2642 1455 2702 1462 2724 1477 2718 1508 2710 1554 2779 1580 2800 1540 2815 1512 2841 1521 2902 1571 2928 1592 2954 1610 2960 1610 2981 1610 3048 1649 3054 1665 3057 1674 3055 1690 3049 1701 3037 1723 3048 1743 3082 1761 3097 1769 3105 1768 3114 1755 3134 1727 3163 1742 3200 1798 3219 1826 3251 1861 3271 1876 3291 1890 3313 1912 3320 1926 3331 1946 3331 1953 3315 1970 3300 1987 3299 1994 3308 2015 3323 2046 3345 2056 3365 2040 3387 2021 3415 2050 3431 2108 3438 2134 3459 2177 3477 2204 3515 2260 3520 2299 3490 2307 3468 2313 3464 2340 3481 2372 3489 2386 3498 2390 3515 2386 3548 2378 3562 2401 3564 2472 3565 2507 3574 2561 3585 2592 3605 2654 3597 2680 3559 2680 3544 2680 3540 2688 3540 2720 3540 2752 3544 2760 3559 2760 3595 2760 3605 2786 3591 2843 3584 2872 3578 2920 3579 2951 3581 3030 3567 3064 3534 3057 3506 3052 3490 3072 3490 3114 3490 3133 3495 3140 3510 3140 3540 3140 3536 3186 3502 3241 3487 3265 3469 3308 3462 3335 3446 3398 3418 3429 3395 3410 3381 3399 3376 3400 3360 3416 3335 3443 3325 3480 3343 3480 3385 3480 3366 3540 3310 3582 3294 3594 3266 3628 3248 3657 3213 3715 3175 3736 3158 3706 3150 3692 3147 3692 3125 3706 3095 3726 3087 3746 3102 3770 3118 3794 3092 3825 3035 3850 3013 3860 2975 3886 2951 3909 2903 3954 2862 3963 2853 3932 2850 3918 2842 3914 2825 3918 2794 3924 2776 3945 2775 3978 2775 4008 2742 4030 2696 4030 2680 4030 2638 4044 2603 4061 2533 4095 2507 4096 2502 4062 2499 4045 2492 4040 2467 4040 2428 4040 2405 4054 2415 4069 2419 4076 2416 4088 2409 4096 2399 4108 2378 4111 2321 4109 2279 4108 2223 4110 2195 4114 2168 4118 2140 4117 2134 4113ZM2205 4090C2208 4085 2205 4080 2198 4080 2191 4080 2175 4077 2163 4074 2146 4069 2140 4072 2140 4084 2140 4102 2194 4107 2205 4090ZM2400 4081C2400 4064 2386 4062 2350 4076L2315 4088 2358 4089C2381 4090 2400 4086 2400 4081ZM2018 4063C2020 4054 2009 4050 1981 4050 1935 4050 1929 4056 1963 4070 1991 4081 2012 4079 2018 4063ZM2318 4065C2347 4056 2370 4045 2370 4040 2370 4024 2199 4024 2170 4040 2157 4048 2157 4049 2170 4054 2186 4059 2251 4078 2261 4079 2264 4080 2290 4073 2318 4065ZM2580 4049C2590 4043 2583 4041 2558 4040 2530 4040 2520 4044 2520 4056 2520 4072 2545 4069 2580 4049ZM1966 4030C1985 4030 2000 4027 2000 4022 2000 4010 1911 3982 1850 3974 1801 3968 1797 3969 1810 3983 1834 4007 1904 4041 1918 4035 1926 4032 1947 4030 1966 4030ZM1813 4009C1795 3998 1775 3992 1769 3996 1752 4006 1787 4030 1819 4030 1845 4030 1845 4029 1813 4009ZM2110 4009C2085 4005 2054 4001 2040 4001 2017 4001 2017 4002 2035 4010 2046 4015 2078 4018 2105 4018L2155 4017 2110 4009ZM2471 4004 2505 3989 2471 3994C2453 3998 2426 4000 2411 4000 2391 4000 2388 4002 2400 4010 2421 4023 2432 4022 2471 4004ZM2682 3989C2708 3972 2728 3954 2725 3950 2715 3934 2530 3993 2530 4012 2530 4016 2553 4020 2582 4020 2622 4020 2643 4013 2682 3989ZM2738 4004C2750 4000 2760 3991 2760 3984 2760 3964 2742 3967 2713 3990 2687 4010 2696 4015 2738 4004ZM2240 3930C2240 3926 2209 3902 2172 3876L2104 3829 2030 3860C1989 3877 1954 3892 1952 3894 1950 3897 1960 3916 1974 3937 2000 3974 2002 3975 2088 3986L2175 3996 2208 3966C2225 3950 2240 3933 2240 3930ZM2319 3993C2319 3988 2306 3975 2291 3963L2263 3941 2235 3970 2206 4000 2263 4000C2294 4000 2320 3997 2319 3993ZM2443 3978C2520 3967 2522 3965 2551 3923 2573 3892 2577 3878 2568 3875 2561 3872 2523 3860 2485 3846L2415 3823 2374 3854C2352 3871 2322 3895 2306 3907L2279 3929 2312 3959C2351 3994 2343 3993 2443 3978ZM1964 3958C1929 3899 1931 3900 1895 3917 1856 3936 1858 3946 1903 3959 1951 3973 1972 3972 1964 3958ZM1655 3951C1662 3939 1653 3934 1610 3925L1575 3919 1605 3939C1639 3962 1646 3964 1655 3951ZM2643 3935C2652 3931 2660 3925 2660 3921 2660 3913 2616 3890 2602 3890 2595 3890 2560 3942 2560 3953 2560 3958 2615 3946 2643 3935ZM1741 3914C1683 3888 1671 3885 1686 3899 1703 3917 1755 3940 1775 3939 1786 3939 1772 3928 1741 3914ZM1870 3910C1892 3899 1910 3887 1910 3884 1910 3880 1887 3849 1859 3813L1807 3749 1726 3756C1682 3759 1643 3764 1641 3766 1639 3768 1643 3789 1650 3814 1662 3857 1665 3860 1744 3894 1788 3913 1826 3930 1828 3930 1829 3930 1849 3921 1870 3910ZM2920 3909 2945 3888 2920 3894C2906 3897 2889 3900 2883 3900 2876 3900 2870 3907 2870 3915 2870 3936 2890 3933 2920 3909ZM2338 3798C2268 3776 2251 3776 2185 3801L2128 3822 2195 3870 2262 3919 2327 3867 2392 3815 2338 3798ZM2817 3887C2866 3854 2848 3855 2784 3889 2742 3911 2734 3918 2755 3914 2772 3910 2799 3898 2817 3887ZM1650 3901C1650 3884 1507 3800 1478 3800 1473 3800 1485 3820 1504 3844 1531 3876 1551 3890 1583 3897 1639 3911 1650 3912 1650 3901ZM2798 3861C2852 3834 2858 3827 2868 3788 2874 3765 2877 3743 2874 3740 2871 3737 2832 3734 2787 3732L2705 3729 2657 3799 2610 3869 2652 3888C2700 3909 2705 3908 2798 3861ZM2075 3818C2078 3815 2055 3796 2024 3775 1969 3739 1965 3738 1903 3745 1868 3749 1840 3755 1842 3758 1844 3762 1865 3790 1889 3821L1933 3877 2001 3850C2039 3835 2072 3821 2075 3818ZM2932 3868C2971 3856 3062 3769 3042 3762 3028 3758 2919 3824 2891 3854 2864 3883 2872 3886 2932 3868ZM1475 3840C1449 3813 1430 3809 1430 3830 1430 3840 1478 3869 1494 3870 1500 3870 1491 3857 1475 3840ZM2637 3797 2679 3735 2613 3732C2551 3729 2543 3731 2493 3766 2464 3786 2442 3806 2445 3809 2452 3816 2570 3858 2585 3859 2591 3859 2614 3831 2637 3797ZM1628 3807C1616 3769 1599 3762 1557 3779 1539 3785 1539 3786 1557 3802 1575 3818 1633 3850 1637 3846 1638 3845 1634 3827 1628 3807ZM3090 3790C3090 3772 3072 3771 3058 3788 3026 3825 3026 3832 3059 3816 3076 3807 3090 3795 3090 3790ZM2953 3776C2983 3754 2974 3740 2928 3740 2909 3740 2900 3746 2895 3763 2877 3826 2876 3823 2902 3809 2914 3802 2937 3788 2953 3776ZM2166 3788 2224 3766 2168 3749C2133 3739 2093 3735 2061 3738L2009 3743 2057 3776C2083 3794 2106 3809 2107 3809 2107 3810 2134 3800 2166 3788ZM2457 3768 2502 3735 2450 3732C2404 3729 2292 3755 2303 3766 2307 3771 2389 3797 2403 3799 2408 3800 2432 3785 2457 3768ZM1450 3740C1431 3723 1407 3705 1396 3699 1378 3688 1378 3689 1396 3713 1416 3739 1458 3769 1475 3770 1480 3770 1469 3756 1450 3740ZM1606 3747C1607 3746 1594 3710 1577 3668L1545 3591 1498 3580C1472 3575 1432 3567 1409 3564 1371 3558 1367 3559 1373 3574 1377 3584 1380 3607 1380 3625 1380 3655 1388 3666 1446 3713 1512 3766 1514 3767 1558 3758 1583 3754 1604 3749 1606 3747ZM1343 3738C1345 3731 1334 3717 1318 3708 1278 3683 1275 3685 1300 3720 1323 3752 1336 3757 1343 3738ZM1758 3734 1791 3729 1745 3676C1705 3629 1694 3621 1643 3611 1612 3605 1583 3600 1578 3600 1574 3600 1580 3624 1591 3653 1603 3681 1616 3715 1621 3727 1630 3751 1643 3751 1758 3734ZM2305 3740C2319 3734 2305 3731 2260 3731 2215 3730 2200 3733 2210 3740 2228 3752 2278 3752 2305 3740ZM1918 3721C1942 3706 1807 3640 1752 3640 1745 3640 1756 3660 1777 3685 1811 3725 1819 3729 1860 3730 1885 3730 1911 3726 1918 3721ZM3072 3668C3137 3606 3138 3604 3133 3563 3127 3513 3121 3512 3025 3538L2965 3555 2938 3630C2923 3671 2911 3708 2911 3712 2910 3718 2941 3725 2985 3729 2998 3729 3031 3706 3072 3668ZM3121 3668C3143 3636 3142 3637 3092 3678 3064 3702 3040 3724 3040 3726 3040 3740 3102 3695 3121 3668ZM2039 3716C2033 3710 1920 3681 1920 3686 1920 3697 1980 3719 2009 3720 2028 3720 2041 3718 2039 3716ZM2542 3663C2637 3631 2679 3609 2772 3546 2869 3481 2899 3453 2973 3364 3049 3272 3068 3242 3116 3130 3166 3012 3172 2992 3186 2865 3202 2732 3201 2725 3180 2592 3159 2464 3153 2447 3094 2328 3040 2220 3017 2186 2940 2102 2863 2018 2832 1993 2732 1933 2629 1871 2598 1858 2477 1825 2340 1788 2339 1788 2202 1795 2082 1801 2049 1807 1938 1841 1826 1876 1798 1890 1697 1958 1597 2026 1571 2049 1494 2145 1418 2238 1397 2274 1353 2376 1305 2487 1299 2510 1284 2635 1268 2771 1268 2775 1290 2907 1309 3027 1318 3055 1371 3167 1423 3276 1441 3305 1522 3394 1600 3480 1631 3506 1734 3569 1842 3636 1868 3647 1987 3679 2119 3715 2120 3715 2272 3709 2416 3703 2432 3701 2542 3663ZM2914 3643C2928 3601 2939 3566 2937 3564 2936 3563 2906 3571 2870 3582 2814 3599 2800 3609 2770 3648 2751 3674 2734 3698 2732 3702 2730 3706 2753 3711 2782 3713 2811 3715 2847 3717 2862 3718 2886 3720 2890 3714 2914 3643ZM2565 3690C2602 3666 2581 3666 2515 3690 2465 3708 2465 3708 2500 3709 2519 3710 2548 3701 2565 3690ZM2726 3673C2776 3610 2776 3609 2718 3626 2672 3640 2580 3693 2580 3705 2580 3708 2606 3710 2638 3710 2694 3710 2698 3708 2726 3673ZM1350 3691C1350 3665 1225 3532 1212 3545 1209 3548 1217 3572 1229 3598 1244 3631 1265 3655 1293 3672 1339 3701 1350 3705 1350 3691ZM3214 3675C3237 3640 3234 3636 3200 3660 3168 3683 3161 3700 3184 3700 3191 3700 3205 3689 3214 3675ZM3234 3615C3258 3599 3306 3503 3296 3492 3282 3479 3160 3625 3160 3655 3160 3659 3171 3655 3185 3646 3199 3637 3221 3623 3234 3615ZM1358 3593C1355 3558 1352 3555 1318 3549 1297 3546 1280 3547 1280 3551 1280 3563 1341 3630 1352 3630 1357 3630 1360 3613 1358 3593ZM1730 3590C1706 3574 1684 3563 1682 3565 1675 3572 1702 3601 1725 3610 1770 3629 1772 3618 1730 3590ZM1199 3576C1192 3562 1181 3550 1173 3550 1154 3550 1157 3560 1182 3587 1208 3615 1215 3611 1199 3576ZM1636 3551C1590 3504 1510 3450 1510 3467 1510 3471 1523 3497 1538 3525 1561 3568 1571 3576 1610 3586 1684 3606 1686 3602 1636 3551ZM2809 3564C2848 3527 2830 3529 2775 3567 2731 3597 2729 3600 2755 3594 2772 3591 2796 3577 2809 3564ZM3226 3503C3223 3500 3205 3501 3185 3504 3151 3511 3150 3513 3150 3553L3151 3595 3191 3552C3214 3528 3229 3506 3226 3503ZM1505 3499C1480 3449 1467 3434 1422 3408 1393 3392 1367 3380 1364 3383 1361 3385 1362 3421 1366 3462L1372 3537 1449 3552C1491 3560 1527 3565 1529 3563 1532 3561 1521 3533 1505 3499ZM2904 3552C2948 3537 2954 3530 2971 3486 2981 3458 2988 3435 2986 3433 2978 3425 2894 3490 2868 3524 2826 3577 2828 3578 2904 3552ZM3340 3500C3324 3490 3317 3498 3305 3540L3298 3565 3326 3537C3350 3514 3353 3508 3340 3500ZM1350 3506C1350 3494 1347 3455 1344 3422L1337 3361 1260 3320 1182 3280 1170 3329 1158 3378 1205 3448C1254 3521 1262 3527 1318 3529 1345 3530 1350 3527 1350 3506ZM3077 3509 3129 3497 3135 3436C3139 3402 3140 3364 3138 3352 3135 3331 3133 3332 3078 3368 3029 3400 3018 3413 3000 3461 2975 3531 2975 3534 3003 3526 3015 3523 3048 3515 3077 3509ZM1194 3465C1174 3435 1156 3410 1154 3410 1152 3410 1155 3422 1161 3438 1170 3461 1217 3520 1227 3520 1229 3520 1214 3495 1194 3465ZM3221 3480C3242 3480 3254 3466 3293 3402 3337 3329 3340 3322 3329 3289 3323 3271 3317 3249 3315 3243 3312 3235 3287 3244 3241 3271 3202 3293 3168 3315 3166 3318 3164 3322 3159 3363 3155 3409L3148 3493 3172 3487C3185 3483 3206 3480 3221 3480ZM3314 3433C3327 3412 3341 3384 3345 3370 3349 3356 3335 3371 3316 3403 3296 3435 3280 3463 3280 3466 3280 3478 3292 3466 3314 3433ZM1520 3420C1474 3362 1459 3355 1481 3403 1489 3422 1533 3459 1548 3460 1550 3460 1537 3442 1520 3420ZM1104 3442C1107 3437 1096 3420 1079 3404L1049 3375 1060 3404C1078 3451 1091 3463 1104 3442ZM3015 3370C3023 3354 3030 3338 3030 3334 3030 3324 2961 3403 2960 3413 2960 3430 3001 3398 3015 3370ZM1083 3303C1035 3207 1020 3199 1032 3277 1039 3324 1048 3342 1078 3373 1130 3426 1132 3399 1083 3303ZM1430 3342C1413 3309 1385 3269 1368 3254L1338 3225 1345 3285C1349 3318 1358 3348 1364 3352 1402 3377 1456 3406 1458 3404 1460 3403 1448 3375 1430 3342ZM3435 3355 3441 3325 3416 3355C3398 3376 3394 3386 3403 3392 3419 3401 3427 3392 3435 3355ZM3144 3279C3147 3262 3150 3233 3150 3216L3149 3185 3118 3220C3093 3249 3040 3347 3040 3365 3040 3368 3062 3356 3089 3340 3125 3317 3139 3302 3144 3279ZM3454 3265C3463 3225 3470 3160 3465 3160 3445 3160 3364 3341 3378 3355 3386 3363 3449 3290 3454 3265ZM1159 3287C1160 3276 1148 3264 1128 3255 1110 3248 1094 3243 1092 3245 1087 3249 1119 3321 1133 3338 1143 3350 1146 3349 1151 3329 1155 3316 1158 3297 1159 3287ZM1325 3268C1319 3211 1314 3201 1272 3158 1247 3132 1224 3113 1220 3115 1213 3120 1186 3259 1191 3264 1200 3272 1316 3329 1323 3330 1328 3330 1329 3302 1325 3268ZM3396 3215C3403 3186 3399 3185 3359 3206 3338 3216 3330 3226 3334 3237 3337 3245 3343 3263 3346 3277L3352 3301 3371 3271C3381 3254 3392 3229 3396 3215ZM1006 3234C1003 3226 996 3220 990 3220 976 3220 977 3246 993 3271 1005 3291 1005 3291 1008 3270 1010 3258 1009 3242 1006 3234ZM3238 3250C3272 3231 3300 3209 3300 3202 3300 3175 3267 3059 3260 3062 3256 3064 3234 3087 3211 3113 3177 3153 3170 3169 3170 3203 3170 3226 3167 3256 3163 3269 3156 3296 3155 3296 3238 3250ZM1178 3208C1207 3089 1207 3091 1140 3025L1079 2965 1060 2990C1027 3031 1027 3055 1054 3138 1079 3211 1084 3219 1118 3233 1138 3241 1158 3248 1161 3249 1165 3250 1172 3231 1178 3208ZM1357 3184C1339 3145 1334 3141 1332 3160 1329 3178 1362 3230 1377 3230 1378 3230 1370 3209 1357 3184ZM3508 3190C3517 3166 3516 3160 3506 3160 3491 3160 3480 3181 3480 3211 3480 3238 3496 3227 3508 3190ZM3374 3177C3410 3157 3415 3149 3432 3085 3455 2995 3454 2986 3427 2945L3404 2911 3343 2973 3282 3035 3302 3118C3313 3163 3325 3200 3328 3200 3332 3200 3353 3190 3374 3177ZM1031 3129C1015 3086 1011 3081 1011 3103 1010 3130 1037 3196 1046 3188 1048 3185 1041 3159 1031 3129ZM3158 3114C3155 3087 3153 3089 3132 3140L3109 3195 3135 3169C3154 3150 3161 3135 3158 3114ZM1300 3102C1295 3074 1280 3029 1267 3003L1243 2956 1232 3016 1222 3075 1263 3117C1285 3141 1305 3158 1307 3156 1309 3155 1306 3130 1300 3102ZM3469 3060C3468 3027 3468 3027 3454 3075 3437 3138 3437 3152 3455 3120 3463 3106 3469 3079 3469 3060ZM3255 3031C3257 3022 3254 2990 3247 2960L3235 2905 3213 2955C3201 2983 3188 3030 3184 3060L3177 3115 3214 3081C3234 3062 3252 3039 3255 3031ZM960 3090C960 3085 951 3066 940 3048 919 3013 916 3018 926 3069 932 3097 960 3115 960 3090ZM990 3058C989 3023 969 2909 959 2884L947 2855 940 2880C925 2927 930 2979 952 3025 973 3069 990 3083 990 3058ZM1211 3033C1211 3023 1215 2994 1219 2969 1226 2928 1223 2915 1194 2859L1162 2796 1125 2869 1088 2943 1141 2996C1198 3054 1210 3060 1211 3033ZM3554 3024C3557 3015 3560 2996 3560 2982 3559 2956 3559 2956 3541 2990 3523 3024 3522 3040 3540 3040 3544 3040 3551 3033 3554 3024ZM1043 2980C1061 2950 1061 2950 1033 2926 1006 2902 1005 2902 1002 2922 997 2949 1009 3010 1018 3010 1022 3010 1034 2997 1043 2980ZM3531 2963C3547 2925 3550 2904 3545 2863 3538 2807 3527 2789 3515 2818 3505 2841 3496 3010 3504 3010 3508 3010 3520 2989 3531 2963ZM3339 2946 3392 2892 3354 2826C3332 2790 3313 2760 3310 2760 3307 2760 3292 2785 3277 2816 3251 2869 3250 2874 3262 2936 3268 2971 3276 3000 3280 3000 3283 3000 3310 2976 3339 2946ZM1274 2928C1265 2870 1251 2845 1250 2887 1250 2915 1267 2970 1277 2970 1279 2970 1277 2951 1274 2928ZM3479 2870 3480 2835 3449 2867 3417 2898 3441 2931 3465 2965 3471 2935C3475 2918 3478 2889 3479 2870ZM1116 2849 1151 2779 1109 2705 1067 2631 1027 2662 988 2693 992 2782C996 2868 997 2871 1031 2899 1050 2915 1068 2926 1073 2923 1077 2921 1096 2887 1116 2849ZM3223 2837 3216 2805 3209 2845C3204 2867 3201 2896 3201 2910 3201 2933 3202 2932 3215 2902 3224 2882 3227 2857 3223 2837ZM920 2873C920 2859 914 2850 905 2850 889 2850 887 2862 897 2898 901 2916 905 2918 911 2908 916 2901 920 2885 920 2873ZM1242 2803C1243 2777 1240 2735 1235 2710L1228 2666 1200 2720 1172 2774 1198 2827C1228 2887 1239 2881 1242 2803ZM3449 2836 3483 2801 3478 2719C3473 2640 3472 2635 3439 2608 3421 2593 3403 2580 3400 2580 3397 2580 3377 2614 3357 2655L3319 2730 3360 2800C3382 2838 3404 2870 3408 2870 3413 2870 3431 2855 3449 2836ZM3580 2808C3580 2789 3575 2780 3564 2780 3552 2780 3549 2786 3554 2803 3557 2815 3560 2834 3560 2845 3560 2877 3580 2841 3580 2808ZM971 2785C966 2737 963 2731 959 2756 954 2784 967 2857 975 2849 976 2847 975 2818 971 2785ZM3277 2770 3297 2724 3270 2676C3255 2650 3239 2633 3236 2638 3227 2653 3226 2760 3234 2798 3243 2837 3250 2832 3277 2770ZM3507 2687C3493 2633 3488 2647 3497 2716 3502 2761 3505 2769 3510 2750 3513 2736 3512 2708 3507 2687ZM1193 2689C1217 2633 1218 2624 1208 2572 1202 2541 1194 2512 1191 2508 1187 2504 1161 2527 1132 2559L1080 2618 1118 2684C1138 2720 1158 2750 1161 2750 1164 2750 1179 2723 1193 2689ZM916 2704C913 2695 910 2676 910 2662 910 2641 908 2638 900 2650 884 2675 888 2720 906 2720 917 2720 920 2715 916 2704ZM955 2683C959 2673 964 2625 966 2575L970 2485 944 2538C922 2583 920 2598 925 2645 932 2701 942 2714 955 2683ZM1264 2635C1270 2577 1270 2576 1255 2603 1244 2621 1241 2642 1246 2666 1249 2685 1254 2700 1255 2698 1256 2696 1260 2668 1264 2635ZM3344 2633C3364 2596 3380 2563 3380 2559 3380 2555 3353 2529 3321 2501L3262 2450 3252 2517C3243 2583 3243 2587 3274 2642 3291 2674 3306 2700 3307 2700 3308 2700 3325 2670 3344 2633ZM1029 2636C1052 2612 1052 2611 1034 2581 1024 2564 1013 2550 1009 2550 1001 2550 990 2602 990 2636 990 2666 1001 2666 1029 2636ZM3580 2648C3580 2621 3567 2590 3559 2596 3543 2605 3549 2660 3565 2660 3573 2660 3580 2654 3580 2648ZM3205 2553C3190 2525 3190 2526 3196 2575 3204 2638 3214 2655 3218 2613 3220 2595 3214 2568 3205 2553ZM3534 2609C3537 2592 3540 2567 3540 2553 3540 2519 3500 2429 3488 2436 3472 2446 3503 2640 3521 2640 3524 2640 3530 2626 3534 2609ZM3460 2515 3449 2486 3428 2520 3408 2554 3436 2579 3465 2604 3468 2574C3470 2557 3466 2531 3460 2515ZM1133 2530 1188 2471 1168 2393C1157 2350 1146 2313 1144 2311 1142 2309 1122 2315 1100 2325 1066 2340 1059 2349 1046 2394 1011 2515 1012 2512 1038 2553 1052 2573 1066 2590 1070 2590 1074 2590 1103 2563 1133 2530ZM1259 2545C1276 2506 1298 2390 1288 2390 1286 2390 1267 2410 1246 2435L1209 2480 1220 2535C1226 2565 1233 2590 1235 2590 1237 2590 1248 2570 1259 2545ZM3238 2489 3246 2434 3202 2384 3159 2335 3165 2385C3171 2430 3218 2555 3226 2547 3228 2546 3233 2519 3238 2489ZM938 2497C949 2472 948 2469 933 2472 921 2474 914 2486 912 2510 908 2548 919 2543 938 2497ZM3440 2455C3440 2450 3430 2411 3417 2370 3395 2299 3392 2294 3350 2274 3298 2249 3300 2246 3280 2354L3267 2423 3330 2484 3392 2544 3416 2504C3429 2483 3440 2461 3440 2455ZM3545 2448C3537 2410 3525 2394 3516 2409 3509 2419 3535 2480 3546 2480 3549 2480 3549 2465 3545 2448ZM1029 2375C1029 2370 1023 2376 1015 2390 1007 2404 1001 2429 1001 2445 1001 2472 1003 2470 1016 2430 1023 2405 1030 2381 1029 2375ZM1302 2286C1304 2252 1305 2223 1303 2221 1300 2216 1218 2259 1188 2282L1166 2298 1184 2376 1203 2455 1251 2400C1295 2350 1299 2341 1302 2286ZM3440 2337C3428 2319 3421 2313 3424 2324 3428 2334 3436 2363 3443 2389 3455 2434 3455 2435 3458 2402 3460 2381 3454 2358 3440 2337ZM1351 2330C1360 2305 1360 2305 1335 2333 1319 2351 1310 2373 1310 2393L1311 2425 1326 2390C1335 2371 1346 2344 1351 2330ZM3263 2348C3267 2324 3272 2291 3276 2274 3282 2243 3280 2241 3210 2206L3138 2169 3145 2237C3151 2300 3155 2308 3197 2352 3223 2378 3246 2397 3250 2395 3254 2392 3260 2371 3263 2348ZM3119 2294C3088 2260 3085 2270 3112 2325 3134 2370 3135 2371 3138 2345 3140 2327 3134 2310 3119 2294ZM984 2328C987 2315 990 2296 989 2285 989 2270 984 2274 971 2300 960 2319 954 2338 957 2342 965 2357 978 2350 984 2328ZM1041 2298C1071 2239 1101 2150 1090 2150 1085 2150 1066 2169 1047 2193 1021 2224 1011 2248 1007 2288 1000 2351 1012 2355 1041 2298ZM1140 2276C1139 2270 1133 2252 1126 2235L1112 2205 1091 2250C1061 2315 1063 2323 1105 2303 1124 2294 1140 2282 1140 2276ZM1412 2186C1422 2160 1426 2140 1422 2142 1418 2144 1396 2156 1373 2170 1330 2195 1320 2218 1320 2284L1321 2315 1358 2274C1378 2251 1403 2212 1412 2186ZM3490 2272C3490 2262 3483 2245 3475 2234 3461 2216 3461 2217 3460 2246 3460 2263 3463 2280 3467 2283 3479 2296 3490 2290 3490 2272ZM3124 2216C3117 2160 3116 2158 3066 2130 3039 2114 3014 2102 3012 2104 3001 2116 3114 2283 3128 2275 3129 2274 3127 2247 3124 2216ZM3438 2228C3428 2177 3367 2084 3350 2095 3333 2106 3417 2280 3439 2280 3443 2280 3443 2257 3438 2228ZM1238 2230 1307 2190 1313 2108C1316 2062 1317 2023 1315 2021 1313 2019 1291 2021 1266 2024 1224 2031 1219 2035 1175 2106 1130 2177 1129 2182 1141 2218 1154 2258 1159 2270 1165 2270 1167 2270 1199 2252 1238 2230ZM3364 2223C3355 2202 3346 2179 3343 2173 3335 2153 3323 2158 3316 2183 3305 2224 3310 2238 3338 2248 3380 2264 3381 2263 3364 2223ZM3300 2175 3313 2130 3266 2059C3217 1985 3216 1985 3158 1976L3120 1971 3121 2013C3121 2036 3125 2075 3128 2100 3135 2144 3137 2146 3205 2182 3244 2203 3278 2220 3281 2220 3285 2220 3293 2200 3300 2175ZM1069 2115C1056 2103 1030 2135 1030 2162 1030 2178 1034 2177 1054 2153 1070 2134 1075 2122 1069 2115ZM1393 2136C1439 2107 1450 2093 1468 2045 1480 2014 1490 1985 1490 1980 1490 1973 1352 2005 1343 2014 1336 2021 1327 2170 1333 2170 1337 2170 1364 2155 1393 2136ZM1492 2118 1525 2076 1493 2095C1475 2105 1456 2127 1451 2142 1438 2178 1449 2171 1492 2118ZM1170 2075 1194 2035 1170 2055C1158 2066 1141 2089 1134 2107 1106 2172 1120 2160 1170 2075ZM2989 2108C2977 2083 2941 2051 2925 2050 2920 2050 2934 2068 2955 2090 3000 2136 3005 2139 2989 2108ZM3105 2053C3101 2010 3096 1973 3094 1971 3089 1966 2947 1940 2943 1944 2941 1946 2951 1974 2965 2006 2988 2059 2998 2069 3048 2098 3079 2115 3107 2130 3108 2130 3110 2130 3109 2095 3105 2053ZM3400 2080C3387 2049 3376 2043 3365 2061 3358 2072 3399 2124 3408 2115 3411 2113 3407 2097 3400 2080ZM3303 2055C3293 2034 3275 2010 3262 2002 3243 1989 3246 1997 3277 2042 3298 2073 3316 2097 3318 2095 3320 2093 3313 2075 3303 2055ZM1588 2001C1595 1992 1609 1973 1620 1959L1639 1934 1579 1949C1520 1964 1519 1965 1500 2018 1489 2047 1480 2073 1480 2076 1480 2084 1573 2018 1588 2001ZM2936 1988C2915 1941 2908 1934 2869 1922 2805 1904 2796 1909 2827 1948 2850 1978 2934 2039 2952 2040 2956 2040 2948 2016 2936 1988ZM1158 1985C1177 1943 1171 1933 1145 1963 1131 1979 1122 1996 1125 2001 1135 2017 1146 2011 1158 1985ZM1226 1968C1277 1914 1314 1861 1306 1853 1293 1839 1214 1907 1193 1950 1156 2025 1166 2031 1226 1968ZM1308 1994C1322 1990 1325 1920 1311 1920 1300 1920 1240 1990 1240 2002 1240 2009 1271 2006 1308 1994ZM1441 1965 1507 1948 1534 1872C1548 1829 1560 1792 1560 1788 1560 1783 1536 1780 1508 1780 1458 1781 1452 1784 1393 1838L1332 1896 1337 1943C1342 1981 1346 1990 1359 1986 1368 1983 1405 1974 1441 1965ZM1725 1912C1715 1902 1669 1926 1651 1951L1629 1981 1678 1948C1706 1930 1727 1914 1725 1912ZM3190 1952C3190 1947 3173 1926 3153 1906L3115 1868 3112 1906C3110 1929 3114 1946 3122 1951 3139 1962 3190 1962 3190 1952ZM3260 1955C3260 1953 3250 1930 3238 1905 3222 1873 3201 1850 3168 1830 3114 1796 3107 1806 3147 1859 3189 1915 3260 1976 3260 1955ZM3305 1949C3312 1939 3284 1900 3269 1900 3265 1900 3266 1914 3271 1930 3282 1961 3294 1968 3305 1949ZM2775 1921C2758 1905 2732 1889 2715 1886 2690 1881 2695 1886 2740 1915 2807 1957 2813 1958 2775 1921ZM3091 1937C3090 1933 3090 1911 3090 1888 3089 1847 3086 1842 3023 1792 2960 1742 2954 1739 2916 1746 2893 1749 2872 1754 2868 1756 2864 1759 2876 1795 2893 1838L2926 1915 3000 1931C3078 1949 3092 1950 3091 1937ZM1603 1923C1654 1909 1667 1900 1701 1855 1722 1827 1740 1800 1740 1797 1740 1793 1704 1790 1661 1790L1582 1790 1562 1848C1551 1879 1539 1913 1535 1923 1526 1944 1529 1944 1603 1923ZM2900 1907C2900 1898 2847 1774 2841 1767 2837 1763 2799 1763 2756 1767L2680 1775 2721 1825C2756 1868 2770 1877 2823 1892 2889 1910 2900 1912 2900 1907ZM1768 1872C1794 1862 1834 1841 1855 1827L1895 1800 1830 1800 1765 1801 1732 1845C1696 1895 1699 1898 1768 1872ZM2698 1828C2663 1786 2661 1785 2594 1782L2525 1780 2572 1811C2611 1837 2686 1865 2724 1869 2729 1870 2717 1851 2698 1828ZM1300 1818C1300 1802 1282 1802 1268 1818 1236 1855 1236 1863 1269 1844 1286 1834 1300 1822 1300 1818ZM1434 1772C1430 1766 1376 1804 1358 1825 1323 1865 1341 1862 1388 1819 1414 1795 1435 1774 1434 1772ZM1989 1804C1991 1802 1977 1800 1958 1800 1937 1800 1912 1808 1899 1820L1875 1840 1930 1824C1960 1815 1987 1806 1989 1804ZM2540 1816C2540 1814 2529 1805 2515 1796 2498 1785 2481 1782 2463 1787 2435 1794 2435 1794 2475 1806 2517 1819 2540 1823 2540 1816ZM3074 1794C3059 1772 3012 1740 2994 1740 2988 1740 3081 1819 3088 1820 3089 1820 3083 1809 3074 1794ZM3181 1802C3165 1772 3141 1755 3129 1767 3122 1774 3129 1784 3152 1798 3194 1824 3193 1823 3181 1802ZM1803 1718C1827 1683 1850 1650 1853 1644 1857 1637 1841 1626 1813 1615L1767 1597 1689 1635C1616 1671 1611 1676 1601 1716 1595 1740 1590 1761 1590 1764 1590 1767 1620 1771 1658 1773 1695 1775 1733 1777 1742 1778 1753 1779 1775 1757 1803 1718ZM1979 1738C2015 1711 2029 1695 2019 1692 2012 1689 1977 1677 1942 1665L1880 1642 1835 1707C1810 1742 1790 1773 1790 1775 1790 1778 1820 1780 1857 1780 1919 1780 1926 1778 1979 1738ZM2125 1760C2174 1743 2175 1742 2149 1732 2079 1704 2054 1706 2004 1744L1957 1780 2016 1779C2048 1779 2098 1770 2125 1760ZM2239 1769 2265 1768 2239 1759C2219 1752 2203 1753 2179 1765L2145 1780 2179 1775C2197 1772 2224 1770 2239 1769ZM1585 1692C1580 1686 1536 1711 1512 1734L1488 1755 1527 1760C1563 1765 1566 1763 1576 1730 1582 1711 1586 1694 1585 1692ZM2460 1766C2460 1764 2438 1748 2410 1730L2360 1698 2310 1715C2283 1724 2260 1735 2260 1739 2260 1752 2332 1767 2398 1769 2432 1769 2460 1768 2460 1766ZM2630 1753C2630 1746 2551 1642 2539 1635 2531 1629 2390 1682 2390 1690 2390 1693 2412 1709 2438 1727 2480 1755 2493 1759 2558 1759 2597 1760 2630 1757 2630 1753ZM1565 1664C1587 1646 1602 1629 1599 1626 1596 1623 1570 1628 1541 1637 1503 1650 1480 1665 1455 1696 1436 1719 1423 1740 1427 1743 1435 1752 1517 1705 1565 1664ZM2826 1737C2829 1734 2826 1713 2819 1690 2806 1646 2787 1632 2687 1595 2641 1578 2638 1578 2599 1595 2553 1616 2553 1619 2612 1696L2655 1751 2738 1746C2784 1744 2823 1740 2826 1737ZM1430 1698 1453 1666 1420 1686C1384 1707 1370 1730 1392 1730 1400 1730 1417 1716 1430 1698ZM2274 1707 2341 1684 2275 1637 2208 1589 2145 1637C2111 1663 2084 1687 2087 1690 2090 1694 2183 1726 2201 1729 2204 1730 2236 1720 2274 1707ZM2930 1723C2930 1714 2874 1674 2848 1664 2827 1657 2827 1658 2841 1699 2851 1727 2856 1730 2891 1730 2912 1730 2930 1727 2930 1723ZM2982 1683C2971 1667 2953 1647 2942 1637 2921 1618 2820 1587 2820 1599 2820 1620 2956 1706 2993 1709 2998 1710 2993 1698 2982 1683ZM3040 1680C3040 1669 2992 1635 2985 1642 2982 1644 2987 1656 2996 1668 3011 1690 3040 1698 3040 1680ZM2124 1628 2192 1576 2154 1545 2117 1513 2031 1527C1984 1535 1943 1544 1939 1548 1936 1552 1924 1571 1912 1591L1890 1627 1963 1653C2002 1667 2040 1679 2046 1679 2052 1680 2088 1657 2124 1628ZM2464 1636 2521 1610 2503 1579C2476 1533 2467 1529 2381 1518 2301 1509 2300 1509 2265 1537 2246 1552 2230 1568 2230 1572 2230 1576 2258 1600 2293 1625 2363 1677 2370 1677 2464 1636ZM1725 1592C1717 1584 1652 1612 1634 1631 1617 1650 1622 1649 1672 1624 1704 1609 1728 1594 1725 1592ZM1569 1609C1600 1598 1608 1586 1591 1575 1586 1572 1569 1581 1553 1595 1521 1623 1524 1625 1569 1609ZM1910 1556C1910 1547 1871 1554 1826 1572L1798 1583 1831 1601 1865 1619 1887 1592C1900 1577 1910 1561 1910 1556ZM2767 1595C2752 1581 2731 1570 2720 1570 2710 1570 2693 1568 2683 1565 2673 1562 2692 1573 2725 1589 2799 1625 2802 1626 2767 1595ZM2582 1584C2607 1571 2610 1566 2598 1559 2579 1548 2500 1531 2500 1537 2500 1544 2541 1600 2546 1600 2549 1600 2565 1593 2582 1584ZM2885 1580C2873 1561 2822 1539 2815 1551 2806 1565 2813 1571 2852 1580 2870 1584 2886 1588 2888 1589 2890 1590 2888 1585 2885 1580ZM1842 1540C1877 1530 1914 1514 1925 1506 1944 1492 1940 1491 1884 1490 1832 1490 1817 1494 1782 1520 1759 1537 1740 1552 1740 1555 1740 1565 1780 1559 1842 1540ZM2242 1532C2267 1511 2255 1500 2205 1500 2151 1500 2142 1512 2176 1539 2203 1560 2211 1559 2242 1532ZM1755 1515 1785 1490 1755 1496C1716 1505 1710 1508 1710 1526 1710 1546 1721 1544 1755 1515ZM2670 1532C2670 1528 2650 1513 2625 1497 2590 1476 2566 1470 2525 1470 2495 1470 2470 1474 2470 1479 2470 1496 2590 1535 2653 1539 2662 1540 2670 1537 2670 1532ZM2035 1506C2091 1493 2093 1492 2055 1491 2033 1491 2002 1497 1985 1505 1947 1522 1960 1522 2035 1506ZM2425 1495C2391 1479 2331 1475 2346 1489 2353 1497 2378 1502 2445 1508 2451 1508 2442 1502 2425 1495ZM2704 1501C2707 1496 2696 1487 2678 1481 2632 1465 2622 1468 2650 1490 2677 1511 2696 1515 2704 1501ZM2273 1474C2293 1470 2310 1464 2310 1460 2310 1448 2212 1427 2182 1433 2167 1436 2142 1444 2125 1450 2102 1459 2099 1463 2110 1470 2127 1481 2217 1483 2273 1474ZM1950 1455C1950 1436 1920 1436 1894 1455 1876 1468 1877 1469 1913 1470 1939 1470 1950 1466 1950 1455ZM2515 1440C2487 1428 2450 1428 2450 1440 2450 1446 2469 1450 2493 1449 2525 1449 2530 1447 2515 1440ZM2145 1419C2150 1414 2140 1410 2118 1410 2082 1410 2064 1421 2077 1434 2086 1442 2131 1432 2145 1419ZM2330 1425C2330 1414 2319 1410 2288 1411L2245 1412 2280 1425C2326 1443 2330 1443 2330 1425Z"/><path d="M2238 2727C2236 2461 2236 2236 2238 2227 2240 2217 2246 2212 2251 2215 2264 2223 2263 3210 2250 3210 2244 3210 2239 3034 2238 2727Z"/><path d="M2568 2930C2590 2921 2590 2918 2590 2742 2590 2555 2589 2548 2545 2537 2534 2535 2563 2532 2610 2532 2657 2532 2686 2535 2675 2537 2635 2547 2630 2560 2630 2646 2630 2691 2634 2731 2639 2734 2662 2749 2704 2714 2770 2625L2840 2530 2893 2530 2945 2530 2905 2549C2877 2561 2850 2588 2815 2636 2788 2674 2753 2717 2738 2732L2710 2758 2775 2839C2821 2896 2850 2922 2873 2929 2901 2937 2897 2938 2840 2939 2799 2939 2780 2936 2789 2931 2807 2920 2803 2910 2741 2823 2697 2760 2685 2750 2660 2750L2630 2750 2630 2828C2630 2908 2635 2923 2660 2933 2668 2936 2646 2938 2610 2939 2561 2939 2551 2936 2568 2930Z"/><path d="M1695 2828C1657 2812 1614 2794 1600 2788L1575 2778 1605 2763C1649 2739 1917 2738 1961 2761L1992 2777 1895 2818C1842 2841 1791 2860 1782 2859 1773 2859 1734 2845 1695 2828Z"/><path d="M1982 2730C1982 2711 1984 2703 1987 2713 1989 2722 1989 2738 1987 2748 1984 2757 1982 2749 1982 2730Z"/><path d="M1703 2733C1672 2729 1670 2726 1670 2690 1670 2652 1671 2651 1696 2660 1710 2666 1750 2670 1785 2670 1820 2670 1860 2666 1874 2660 1899 2651 1900 2652 1900 2685 1900 2703 1895 2722 1890 2725 1876 2734 1744 2739 1703 2733Z"/><path d="M1976 2683C1965 2672 1970 2660 1985 2660 1993 2660 2000 2664 2000 2669 2000 2682 1984 2691 1976 2683Z"/><path d="M1976 2635C1965 2606 1969 2580 1985 2580 2001 2580 2005 2616 1991 2638 1984 2649 1981 2648 1976 2635Z"/><path d="M758 1111C768 1105 771 1081 768 1021 766 954 768 940 780 940 792 940 794 954 792 1021 789 1081 792 1105 802 1111 810 1117 803 1120 780 1120 757 1120 750 1117 758 1111Z"/><path d="M855 1110C859 1104 854 1087 845 1072L829 1045 852 1071C865 1085 884 1102 895 1108 913 1118 912 1119 882 1120 861 1120 851 1116 855 1110Z"/><path d="M979 1091C991 1075 1011 1039 1024 1011 1039 978 1050 965 1053 974 1056 982 1045 1014 1029 1044 1012 1075 1001 1104 1005 1110 1009 1116 1000 1120 985 1120L959 1120 979 1091Z"/><path d="M1086 1113C1091 1108 1097 1101 1101 1097 1104 1093 1113 1096 1120 1105 1131 1118 1129 1120 1105 1120 1089 1120 1081 1117 1086 1113Z"/><path d="M1178 1112C1188 1105 1191 1081 1188 1021 1186 954 1188 940 1200 940 1212 940 1214 954 1212 1020 1209 1088 1211 1101 1226 1107 1273 1125 1296 1046 1250 1023 1236 1016 1232 1010 1240 1010 1266 1010 1300 1040 1300 1063 1300 1102 1284 1113 1223 1117 1186 1120 1170 1118 1178 1112Z"/><path d="M1465 1113C1476 1110 1493 1101 1503 1092 1518 1078 1520 1078 1520 1092 1520 1110 1499 1121 1467 1119 1446 1118 1446 1117 1465 1113Z"/><path d="M1687 1109C1707 1103 1725 1088 1735 1070 1754 1034 1754 1013 1735 975L1720 945 1745 973C1779 1012 1778 1054 1741 1091 1721 1110 1702 1120 1683 1119L1655 1118 1687 1109Z"/><path d="M1838 1111C1848 1105 1851 1081 1848 1021 1846 954 1848 940 1860 940 1872 940 1874 955 1872 1025 1869 1106 1870 1110 1890 1110 1916 1110 1927 1084 1912 1059 1902 1044 1904 1036 1920 1020 1944 996 1945 977 1924 956 1916 947 1913 940 1919 940 1931 940 1960 980 1960 997 1960 1004 1951 1018 1939 1029 1926 1041 1922 1050 1929 1055 1947 1065 1942 1098 1921 1110 1897 1122 1819 1124 1838 1111Z"/><path d="M2086 1104C2083 1096 2087 1082 2095 1074 2116 1053 2114 1040 2090 1040 2076 1040 2072 1045 2076 1058 2079 1067 2074 1062 2065 1047 2056 1031 2051 1016 2054 1012 2057 1009 2060 1012 2060 1018 2060 1025 2073 1030 2090 1030 2114 1030 2123 1023 2139 991 2150 970 2156 950 2153 946 2149 943 2156 940 2168 940 2189 940 2188 945 2145 1030 2120 1080 2098 1120 2096 1120 2094 1120 2089 1113 2086 1104Z"/><path d="M2328 1110C2357 1098 2360 1040 2331 1040 2306 1040 2286 1065 2293 1090 2296 1101 2294 1110 2289 1110 2284 1110 2277 1098 2274 1083 2268 1062 2272 1053 2289 1042L2310 1027 2274 984C2253 957 2244 940 2252 940 2260 940 2280 960 2298 985 2315 1010 2335 1030 2341 1030 2348 1030 2351 1014 2348 985 2346 954 2349 940 2357 940 2367 940 2370 963 2370 1024 2370 1082 2374 1110 2383 1113 2389 1116 2375 1118 2350 1119 2313 1119 2309 1117 2328 1110Z"/><path d="M2548 1111C2558 1105 2561 1081 2558 1021 2556 954 2558 940 2570 940 2582 940 2584 955 2582 1025L2579 1110 2604 1110C2653 1110 2663 1039 2617 1020 2599 1013 2599 1011 2613 1011 2636 1010 2670 1045 2670 1069 2670 1098 2631 1120 2580 1120 2552 1120 2540 1117 2548 1111Z"/><path d="M2786 1112C2783 1106 2787 1089 2795 1074 2808 1048 2808 1045 2794 1042 2785 1040 2774 1043 2770 1050 2765 1058 2761 1057 2756 1045 2753 1036 2750 1027 2750 1026 2750 1025 2765 1026 2784 1028 2815 1032 2818 1029 2836 986 2847 958 2861 940 2871 940 2884 940 2877 959 2842 1028 2789 1130 2794 1124 2786 1112Z"/><path d="M2955 1030C2955 957 2958 940 2970 940 2982 940 2984 955 2982 1025L2979 1110 3007 1110C3023 1110 3042 1104 3049 1098 3060 1087 3062 1088 3058 1100 3055 1110 3037 1116 3004 1118L2955 1121 2955 1030Z"/><path d="M3237 1109C3257 1103 3275 1088 3285 1070 3304 1034 3304 1013 3285 975L3270 945 3295 973C3329 1012 3328 1054 3291 1091 3271 1110 3252 1120 3233 1119L3205 1118 3237 1109Z"/><path d="M3370 1105C3370 1093 3374 1092 3389 1101 3399 1108 3415 1110 3424 1107 3439 1101 3441 1088 3438 1020 3436 961 3438 940 3448 940 3457 940 3460 964 3460 1025 3460 1107 3461 1110 3483 1110 3496 1110 3511 1105 3518 1098 3527 1089 3530 1090 3530 1103 3530 1118 3519 1120 3450 1120 3385 1120 3370 1117 3370 1105Z"/><path d="M3630 1096C3625 1082 3616 1060 3611 1047 3603 1026 3604 1025 3635 1028 3664 1031 3671 1028 3684 1002 3693 985 3700 964 3700 955 3700 947 3708 940 3718 940 3734 940 3730 952 3692 1027 3668 1075 3647 1117 3645 1119 3642 1121 3636 1111 3630 1096ZM3654 1064C3663 1041 3662 1040 3640 1040 3629 1040 3620 1042 3620 1044 3620 1056 3633 1080 3640 1080 3644 1080 3651 1073 3654 1064Z"/><path d="M1377 1082C1351 1054 1355 994 1385 965 1398 951 1416 940 1424 940 1433 940 1428 950 1409 969 1378 1000 1371 1044 1390 1081 1403 1105 1398 1105 1377 1082Z"/><path d="M1597 1082C1561 1043 1592 939 1638 941 1649 941 1650 943 1642 947 1608 961 1586 1062 1612 1088 1619 1095 1622 1100 1619 1100 1616 1100 1606 1092 1597 1082Z"/><path d="M3147 1082C3111 1043 3142 939 3188 941 3199 941 3200 943 3192 947 3158 961 3136 1062 3162 1088 3169 1095 3172 1100 3169 1100 3166 1100 3156 1092 3147 1082Z"/><path d="M818 1034C808 1025 879 940 896 940 906 940 902 949 886 968 873 983 853 1005 843 1018 833 1031 822 1038 818 1034Z"/><path d="M3028 1030C3056 1018 3059 966 3033 951 3023 945 3020 940 3027 940 3046 940 3070 970 3070 994 3070 1022 3052 1040 3026 1039 3006 1039 3006 1038 3028 1030Z"/><path d="M3577 975C3561 940 3561 940 3583 940 3599 940 3601 943 3591 949 3581 956 3580 962 3590 980 3596 992 3600 1004 3598 1006 3595 1008 3586 994 3577 975Z"/><path d="M2730 981C2730 976 2723 964 2714 956 2700 941 2700 940 2717 940 2729 940 2735 948 2736 965 2737 979 2736 990 2734 990 2732 990 2730 986 2730 981Z"/><path d="M2022 960C2011 943 2012 940 2029 940 2043 940 2047 945 2043 960 2040 971 2037 980 2036 980 2035 980 2029 971 2022 960Z"/><path d="M1496 954C1479 942 1479 940 1492 940 1501 940 1512 945 1515 951 1526 968 1517 969 1496 954Z"/><path d="M1000 950C1000 945 1007 940 1016 940 1024 940 1028 945 1025 950 1022 956 1015 960 1009 960 1004 960 1000 956 1000 950Z"/><path d="M643 614C651 606 3809 606 3817 614 3821 617 3106 620 2230 620 1354 620 640 617 643 614Z"/></g></svg>