<?xml version="1.0" standalone="no"?>
<!DOCTYPE svg PUBLIC "-//W3C//DTD SVG 20010904//EN"
 "http://www.w3.org/TR/2001/REC-SVG-20010904/DTD/svg10.dtd">
<svg version="1.0" xmlns="http://www.w3.org/2000/svg"
 width="225.000000pt" height="225.000000pt" viewBox="0 0 225.000000 225.000000"
 preserveAspectRatio="xMidYMid meet">

<g transform="translate(0.000000,225.000000) scale(0.100000,-0.100000)"
fill="#000000" stroke="none">
<path d="M2153 793 l-31 -33 -576 0 c-575 0 -576 0 -576 -21 0 -33 -19 -60
-55 -75 -44 -18 -753 -21 -804 -3 -17 6 -38 23 -46 38 -13 23 -14 -4 -15 -247
l0 -274 29 -29 29 -29 1006 0 c715 0 1012 3 1029 11 46 21 48 35 45 374 l-3
320 -32 -32z m-935 -250 l3 -33 -70 0 -71 0 0 -30 0 -30 60 0 60 0 0 -35 0
-35 -60 0 -59 0 -3 -62 -3 -63 -37 -3 -38 -3 0 166 0 166 108 -3 107 -3 3 -32z
m233 -123 c33 -85 59 -158 59 -162 0 -5 -18 -8 -41 -8 -36 0 -42 3 -52 30 -11
28 -15 30 -63 30 -49 0 -53 -2 -63 -30 -9 -27 -14 -30 -50 -30 -23 0 -41 3
-41 6 0 8 110 305 117 317 3 4 21 7 40 5 l36 -3 58 -155z m329 125 c0 -35 0
-35 -45 -35 l-44 0 -3 -127 -3 -128 -40 0 -40 0 -3 128 -3 127 -44 0 c-45 0
-45 0 -45 35 l0 35 135 0 135 0 0 -35z m-1124 -79 c28 -28 34 -42 34 -75 l0
-41 -70 0 c-73 0 -89 -12 -45 -32 19 -8 31 -8 52 1 23 10 29 9 46 -8 20 -19
20 -20 -14 -40 -72 -44 -161 -13 -188 66 -13 36 -13 45 3 87 20 53 52 75 110
76 30 0 45 -7 72 -34z m163 3 l19 -30 21 30 c18 24 30 31 57 31 19 0 34 -3 34
-7 0 -3 -14 -30 -30 -60 l-30 -53 30 -60 c16 -33 30 -62 30 -65 0 -3 -16 -5
-35 -5 -30 0 -39 5 -57 36 l-21 36 -19 -36 c-17 -32 -23 -36 -59 -36 -22 0
-39 3 -37 8 2 4 17 33 33 65 l30 59 -28 49 c-15 27 -27 54 -27 59 0 6 16 10
35 10 29 0 39 -6 54 -31z"/>
<path d="M1337 427 l-16 -47 30 0 c32 0 34 7 15 60 l-13 34 -16 -47z"/>
<path d="M556 425 c-22 -23 -21 -25 20 -25 28 0 35 3 32 17 -4 24 -32 28 -52
8z"/>
</g>
</svg>
