<?xml version="1.0" standalone="no"?>
<!DOCTYPE svg PUBLIC "-//W3C//DTD SVG 20010904//EN"
 "http://www.w3.org/TR/2001/REC-SVG-20010904/DTD/svg10.dtd">
<svg version="1.0" xmlns="http://www.w3.org/2000/svg"
 width="259.000000pt" height="194.000000pt" viewBox="0 0 259.000000 194.000000"
 preserveAspectRatio="xMidYMid meet">

<g transform="translate(0.000000,194.000000) scale(0.100000,-0.100000)"
fill="#000000" stroke="none">
<path d="M1568 1189 l-148 -199 0 -75 0 -75 140 0 140 0 0 -69 c0 -85 8 -93
92 -89 l63 3 3 77 3 77 42 3 42 3 0 65 0 65 -42 3 -43 3 -2 202 -3 202 -70 2
-70 2 -147 -200z m129 -206 c-3 -2 -33 -3 -67 -1 l-62 3 63 87 64 86 3 -85 c2
-47 1 -87 -1 -90z"/>
<path d="M687 1033 c-4 -3 -7 -82 -7 -175 l0 -168 135 0 135 0 0 35 0 35 -90
0 -90 0 0 35 0 34 78 3 77 3 3 33 3 32 -80 0 -81 0 0 30 0 30 85 0 85 0 0 40
0 40 -123 0 c-68 0 -127 -3 -130 -7z"/>
<path d="M1274 1005 c-4 -8 -4 -25 -1 -36 4 -15 0 -23 -14 -26 -23 -6 -26 -50
-3 -55 12 -2 15 -20 17 -86 3 -97 14 -112 84 -112 41 0 43 1 43 30 0 23 -4 30
-20 30 -24 0 -33 29 -28 91 2 37 7 45 26 47 16 2 22 10 22 27 0 17 -6 25 -22
27 -19 2 -24 10 -26 41 -3 35 -5 37 -38 37 -22 0 -37 -6 -40 -15z"/>
<path d="M980 933 c0 -3 16 -30 36 -59 l36 -53 -41 -58 c-22 -32 -41 -62 -41
-66 0 -4 18 -7 40 -7 34 0 43 5 64 37 l25 36 21 -36 c20 -34 26 -37 66 -37 24
0 44 3 44 6 0 3 -20 33 -44 67 l-44 62 40 55 40 55 -43 3 c-36 3 -45 -1 -63
-23 l-22 -27 -13 26 c-12 22 -21 26 -58 26 -24 0 -43 -3 -43 -7z"/>
</g>
</svg>
