<?xml version="1.0" standalone="no"?>
<!DOCTYPE svg PUBLIC "-//W3C//DTD SVG 20010904//EN"
 "http://www.w3.org/TR/2001/REC-SVG-20010904/DTD/svg10.dtd">
<svg version="1.0" xmlns="http://www.w3.org/2000/svg"
 width="40.000000pt" height="40.000000pt" viewBox="0 0 40.000000 40.000000"
 preserveAspectRatio="xMidYMid meet">

<g transform="translate(0.000000,40.000000) scale(0.100000,-0.100000)"
fill="#000000" stroke="none">
<path d="M125 368 c-32 -17 -76 -61 -91 -90 -17 -32 -18 -121 -3 -151 17 -32
60 -77 91 -93 35 -18 121 -18 156 0 31 16 74 61 91 93 6 12 11 46 11 75 0 103
-77 178 -181 178 -30 0 -63 -6 -74 -12z m113 -80 c18 -18 14 -60 -8 -88 -11
-14 -20 -31 -20 -37 0 -7 -4 -13 -10 -13 -16 0 -11 33 10 65 11 17 20 35 20
41 0 20 -32 25 -50 9 -30 -28 -44 -10 -14 19 18 19 55 21 72 4z m-28 -173 c0
-8 -4 -15 -10 -15 -5 0 -10 7 -10 15 0 8 5 15 10 15 6 0 10 -7 10 -15z"/>
</g>
</svg>
