<?xml version="1.0" standalone="no"?>
<!DOCTYPE svg PUBLIC "-//W3C//DTD SVG 20010904//EN"
 "http://www.w3.org/TR/2001/REC-SVG-20010904/DTD/svg10.dtd">
<svg version="1.0" xmlns="http://www.w3.org/2000/svg"
 width="440.000000pt" height="460.000000pt" viewBox="0 0 440.000000 460.000000"
 preserveAspectRatio="xMidYMid meet">

<g transform="translate(0.000000,460.000000) scale(0.100000,-0.100000)"
fill="#ffffff" stroke="none">
<path d="M2134 4113 c-7 -4 -14 -19 -15 -33 -4 -22 -10 -25 -47 -28 -30 -2
-42 0 -37 8 9 15 -13 40 -37 40 -10 0 -41 -11 -68 -25 -28 -14 -67 -25 -89
-25 -22 0 -52 -5 -66 -10 -23 -9 -27 -15 -23 -41 4 -27 1 -33 -30 -47 -34 -16
-35 -16 -50 6 -21 32 -46 27 -95 -16 -23 -21 -63 -46 -88 -56 -63 -23 -87 -50
-70 -78 11 -17 9 -23 -10 -44 -27 -29 -36 -30 -62 -7 -18 17 -20 16 -57 -27
-22 -25 -64 -70 -95 -100 -55 -55 -68 -86 -40 -96 21 -8 19 -27 -6 -58 -15
-20 -25 -24 -32 -17 -23 23 -48 11 -67 -31 -11 -24 -20 -50 -20 -58 0 -8 -16
-37 -35 -64 -40 -57 -47 -106 -15 -106 23 0 26 -25 9 -64 -10 -20 -17 -24 -39
-19 -25 4 -29 1 -40 -32 -7 -20 -10 -51 -7 -68 3 -19 -4 -57 -16 -93 -24 -69
-19 -94 18 -94 23 0 25 -4 25 -44 0 -41 -2 -45 -27 -48 -35 -4 -41 -39 -20
-102 9 -25 13 -62 10 -93 -6 -61 8 -93 42 -93 26 0 45 -25 45 -59 0 -12 -7
-21 -15 -21 -39 0 -36 -53 6 -112 11 -15 28 -56 37 -90 19 -67 41 -90 70 -71
15 9 21 7 33 -11 25 -38 26 -50 5 -67 -19 -16 -19 -17 -2 -44 10 -15 37 -46
59 -69 23 -23 51 -57 62 -76 28 -47 52 -60 70 -37 10 15 18 16 33 8 37 -20 46
-39 32 -66 -17 -32 -2 -51 65 -81 28 -12 61 -34 75 -49 14 -15 38 -34 54 -42
28 -15 31 -14 48 7 13 16 23 20 40 15 38 -12 48 -25 42 -55 -7 -34 12 -47 83
-57 26 -3 70 -17 96 -30 58 -29 91 -27 95 5 4 23 24 28 69 16 18 -5 22 -11 17
-30 -9 -35 30 -50 99 -38 31 6 67 6 86 1 18 -4 49 -7 69 -5 31 2 38 7 41 28 4
30 17 40 53 40 20 0 27 -6 30 -23 4 -31 49 -34 107 -8 25 11 72 23 103 26 60
7 82 22 76 53 -8 46 61 72 82 32 15 -28 41 -19 102 31 26 21 52 39 58 39 21 0
88 39 94 55 3 9 1 25 -5 36 -12 22 -1 42 33 60 15 8 23 7 32 -6 20 -28 49 -13
86 43 19 28 51 63 71 78 20 14 42 36 49 50 11 20 11 27 -5 44 -15 17 -16 24
-7 45 15 31 37 41 57 25 22 -19 50 10 66 68 7 26 28 69 46 96 38 56 43 95 13
103 -22 6 -26 33 -9 65 8 14 17 18 34 14 33 -8 47 15 49 86 1 35 10 89 21 120
20 62 12 88 -26 88 -15 0 -19 8 -19 40 0 32 4 40 19 40 36 0 46 26 32 83 -7
29 -13 77 -12 108 2 79 -12 113 -45 106 -28 -5 -44 15 -44 57 0 19 5 26 20 26
30 0 26 46 -8 101 -15 24 -33 67 -40 94 -16 63 -44 94 -67 75 -14 -11 -19 -10
-35 6 -25 27 -35 64 -17 64 42 0 23 60 -33 102 -16 12 -44 46 -62 75 -35 58
-73 79 -90 49 -8 -14 -11 -14 -33 0 -30 20 -38 40 -23 64 16 24 -10 55 -67 80
-22 10 -60 36 -84 59 -48 45 -89 54 -98 23 -3 -14 -11 -18 -28 -14 -31 6 -49
27 -50 60 0 30 -33 52 -79 52 -16 0 -58 14 -93 31 -70 34 -96 35 -101 1 -3
-17 -10 -22 -35 -22 -39 0 -62 14 -52 29 4 7 1 19 -6 27 -10 12 -31 15 -88 13
-42 -1 -98 1 -126 5 -27 4 -55 3 -61 -1z m71 -23 c3 -5 0 -10 -7 -10 -7 0 -23
-3 -35 -6 -17 -5 -23 -2 -23 10 0 18 54 23 65 6z m195 -9 c0 -17 -14 -19 -50
-5 l-35 12 43 1 c23 1 42 -3 42 -8z m-382 -18 c2 -9 -9 -13 -37 -13 -46 0 -52
6 -18 20 28 11 49 9 55 -7z m300 2 c29 -9 52 -20 52 -25 0 -16 -171 -16 -200
0 -13 8 -13 9 0 14 16 5 81 24 91 25 3 1 29 -6 57 -14z m262 -16 c10 -6 3 -8
-22 -9 -28 0 -38 4 -38 16 0 16 25 13 60 -7z m-614 -19 c19 0 34 -3 34 -8 0
-12 -89 -40 -150 -48 -49 -6 -53 -5 -40 9 24 24 94 58 108 52 8 -3 29 -5 48
-5z m-153 -21 c-18 -11 -38 -17 -44 -13 -17 10 18 34 50 34 26 0 26 -1 -6 -21z
m297 0 c-25 -4 -56 -8 -70 -8 -23 0 -23 1 -5 9 11 5 43 8 70 8 l50 -1 -45 -8z
m361 -5 l34 -15 -34 5 c-18 4 -45 6 -60 6 -20 0 -23 2 -11 10 21 13 32 12 71
-6z m211 -15 c26 -17 46 -35 43 -39 -10 -16 -195 43 -195 62 0 4 23 8 52 8 40
0 61 -7 100 -31z m56 15 c12 -4 22 -13 22 -20 0 -20 -18 -17 -47 6 -26 20 -17
25 25 14z m-498 -74 c0 -4 -31 -28 -68 -54 l-68 -47 -74 31 c-41 17 -76 32
-78 34 -2 3 8 22 22 43 26 37 28 38 114 49 l87 10 33 -30 c17 -16 32 -33 32
-36z m79 63 c0 -5 -13 -18 -28 -30 l-28 -22 -28 29 -29 30 57 0 c31 0 57 -3
56 -7z m124 -15 c77 -11 79 -13 108 -55 22 -31 26 -45 17 -48 -7 -3 -45 -15
-83 -29 l-70 -23 -41 31 c-22 17 -52 41 -68 53 l-27 22 33 30 c39 35 31 34
131 19z m-479 -20 c-35 -59 -33 -58 -69 -41 -39 19 -37 29 8 42 48 14 69 13
61 -1z m-309 -7 c7 -12 -2 -17 -45 -26 l-35 -6 30 20 c34 23 41 25 50 12z
m988 -16 c9 -4 17 -10 17 -14 0 -8 -44 -31 -58 -31 -7 0 -42 52 -42 63 0 5 55
-7 83 -18z m-902 -21 c-58 -26 -70 -29 -55 -15 17 18 69 41 89 40 11 0 -3 -11
-34 -25z m129 -4 c22 -11 40 -23 40 -26 0 -4 -23 -35 -51 -71 l-52 -64 -81 7
c-44 3 -83 8 -85 10 -2 2 2 23 9 48 12 43 15 46 94 80 44 19 82 36 84 36 1 0
21 -9 42 -20z m1050 -1 l25 -21 -25 6 c-14 3 -31 6 -37 6 -7 0 -13 7 -13 15 0
21 20 18 50 -6z m-582 -111 c-70 -22 -87 -22 -153 3 l-57 21 67 48 67 49 65
-52 65 -52 -54 -17z m479 89 c49 -33 31 -32 -33 2 -42 22 -50 29 -29 25 17 -4
44 -16 62 -27z m-1167 14 c0 -17 -143 -101 -172 -101 -5 0 7 20 26 44 27 32
47 46 79 53 56 14 67 15 67 4z m1148 -40 c54 -27 60 -34 70 -73 6 -23 9 -45 6
-48 -3 -3 -42 -6 -87 -8 l-82 -3 -48 70 -47 70 42 19 c48 21 53 20 146 -27z
m-723 -43 c3 -3 -20 -22 -51 -43 -55 -36 -59 -37 -121 -30 -35 4 -63 10 -61
13 2 4 23 32 47 63 l44 56 68 -27 c38 -15 71 -29 74 -32z m857 50 c39 -12 130
-99 110 -106 -14 -4 -123 62 -151 92 -27 29 -19 32 41 14z m-1457 -28 c-26
-27 -45 -31 -45 -10 0 10 48 39 64 40 6 0 -3 -13 -19 -30z m1162 -43 l42 -62
-66 -3 c-62 -3 -70 -1 -120 34 -29 20 -51 40 -48 43 7 7 125 49 140 50 6 0 29
-28 52 -62z m-1009 10 c-12 -38 -29 -45 -71 -28 -18 6 -18 7 0 23 18 16 76 48
80 44 1 -1 -3 -19 -9 -39z m1462 -17 c0 -18 -18 -19 -32 -2 -32 37 -32 44 1
28 17 -9 31 -21 31 -26z m-137 -14 c30 -22 21 -36 -25 -36 -19 0 -28 6 -33 23
-18 63 -19 60 7 46 12 -7 35 -21 51 -33z m-787 12 l58 -22 -56 -17 c-35 -10
-75 -14 -107 -11 l-52 5 48 33 c26 18 49 33 50 33 0 1 27 -9 59 -21z m291 -20
l45 -33 -52 -3 c-46 -3 -158 23 -147 34 4 5 86 31 100 33 5 1 29 -14 54 -31z
m-1007 -28 c-19 -17 -43 -35 -54 -41 -18 -11 -18 -10 0 14 20 26 62 56 79 57
5 0 -6 -14 -25 -30z m156 7 c1 -1 -12 -37 -29 -79 l-32 -77 -47 -11 c-26 -5
-66 -13 -89 -16 -38 -6 -42 -5 -36 10 4 10 7 33 7 51 0 30 8 41 66 88 66 53
68 54 112 45 25 -4 46 -9 48 -11z m-263 -9 c2 -7 -9 -21 -25 -30 -40 -25 -43
-23 -18 12 23 32 36 37 43 18z m415 -4 l33 -5 -46 -53 c-40 -47 -51 -55 -102
-65 -31 -6 -60 -11 -65 -11 -4 0 2 24 13 53 12 28 25 62 30 74 9 24 22 24 137
7z m547 6 c14 -6 0 -9 -45 -9 -45 -1 -60 2 -50 9 18 12 68 12 95 0z m-387 -19
c24 -15 -111 -81 -166 -81 -7 0 4 20 25 45 34 40 42 44 83 45 25 0 51 -4 58
-9z m1154 -53 c65 -62 66 -64 61 -105 -6 -50 -12 -51 -108 -25 l-60 17 -27 75
c-15 41 -27 78 -27 82 -1 6 30 13 74 17 13 0 46 -23 87 -61z m49 0 c22 -32 21
-31 -29 10 -28 24 -52 46 -52 48 0 14 62 -31 81 -58z m-1082 48 c-6 -6 -119
-35 -119 -30 0 11 60 33 89 34 19 0 32 -2 30 -4z m503 -53 c95 -32 137 -54
230 -117 97 -65 127 -93 201 -182 76 -92 95 -122 143 -234 50 -118 56 -138 70
-265 16 -133 15 -140 -6 -273 -21 -128 -27 -145 -86 -264 -54 -108 -77 -142
-154 -226 -77 -84 -108 -109 -208 -169 -103 -62 -134 -75 -255 -108 -137 -37
-138 -37 -275 -30 -120 6 -153 12 -264 46 -112 35 -140 49 -241 117 -100 68
-126 91 -203 187 -76 93 -97 129 -141 231 -48 111 -54 134 -69 259 -16 136
-16 140 6 272 19 120 28 148 81 260 52 109 70 138 151 227 78 86 109 112 212
175 108 67 134 78 253 110 132 36 133 36 285 30 144 -6 160 -8 270 -46z m372
-20 c14 -42 25 -77 23 -79 -1 -1 -31 7 -67 18 -56 17 -70 27 -100 66 -19 26
-36 50 -38 54 -2 4 21 9 50 11 29 2 65 4 80 5 24 2 28 -4 52 -75z m-349 47
c37 -24 16 -24 -50 0 -50 18 -50 18 -15 19 19 1 48 -8 65 -19z m161 -17 c50
-63 50 -64 -8 -47 -46 14 -138 67 -138 79 0 3 26 5 58 5 56 0 60 -2 88 -37z
m-1376 18 c0 -26 -125 -159 -138 -146 -3 3 5 27 17 53 15 33 36 57 64 74 46
29 57 33 57 19z m1864 -16 c23 -35 20 -39 -14 -15 -32 23 -39 40 -16 40 7 0
21 -11 30 -25z m20 -60 c24 -16 72 -112 62 -123 -14 -13 -136 133 -136 163 0
4 11 0 25 -9 14 -9 36 -23 49 -31z m-1876 -22 c-3 -35 -6 -38 -40 -44 -21 -3
-38 -2 -38 2 0 12 61 79 72 79 5 0 8 -17 6 -37z m372 -3 c-24 -16 -46 -27 -48
-25 -7 7 20 36 43 45 45 19 47 8 5 -20z m-531 -14 c-7 -14 -18 -26 -26 -26
-19 0 -16 10 9 37 26 28 33 24 17 -11z m437 -25 c-46 -47 -126 -101 -126 -84
0 4 13 30 28 58 23 43 33 51 72 61 74 20 76 16 26 -35z m1173 13 c39 -37 21
-35 -34 3 -44 30 -46 33 -20 27 17 -3 41 -17 54 -30z m417 -61 c-3 -3 -21 -2
-41 1 -34 7 -35 9 -35 49 l1 42 40 -43 c23 -24 38 -46 35 -49z m-1721 -4 c-25
-50 -38 -65 -83 -91 -29 -16 -55 -28 -58 -25 -3 2 -2 38 2 79 l6 75 77 15 c42
8 78 13 80 11 3 -2 -8 -30 -24 -64z m1399 53 c44 -15 50 -22 67 -66 10 -28 17
-51 15 -53 -8 -8 -92 57 -118 91 -42 53 -40 54 36 28z m436 -52 c-16 -10 -23
-2 -35 40 l-7 25 28 -28 c24 -23 27 -29 14 -37z m-1990 6 c0 -12 -3 -51 -6
-84 l-7 -61 -77 -41 -78 -40 -12 49 -12 49 47 70 c49 73 57 79 113 81 27 1 32
-2 32 -23z m1727 3 l52 -12 6 -61 c4 -34 5 -72 3 -84 -3 -21 -5 -20 -60 16
-49 32 -60 45 -78 93 -25 70 -25 73 3 65 12 -3 45 -11 74 -17z m-1883 -44
c-20 -30 -38 -55 -40 -55 -2 0 1 12 7 28 9 23 56 82 66 82 2 0 -13 -25 -33
-55z m2027 15 c21 0 33 -14 72 -78 44 -73 47 -80 36 -113 -6 -18 -12 -40 -14
-46 -3 -8 -28 1 -74 28 -39 22 -73 44 -75 47 -2 4 -7 45 -11 91 l-7 84 24 -6
c13 -4 34 -7 49 -7z m93 -47 c13 -21 27 -49 31 -63 4 -14 -10 1 -29 33 -20 32
-36 60 -36 63 0 12 12 0 34 -33z m-1794 -13 c-46 -58 -61 -65 -39 -17 8 19 52
56 67 57 2 0 -11 -18 -28 -40z m-416 22 c3 -5 -8 -22 -25 -38 l-30 -29 11 29
c18 47 31 59 44 38z m1911 -72 c8 -16 15 -32 15 -36 0 -10 -69 69 -70 79 0 17
41 -15 55 -43z m-1932 -67 c-48 -96 -63 -104 -51 -26 7 47 16 65 46 96 52 53
54 26 5 -70z m347 39 c-17 -33 -45 -73 -62 -88 l-30 -29 7 60 c4 33 13 63 19
67 38 25 92 54 94 52 2 -1 -10 -29 -28 -62z m2005 13 l6 -30 -25 30 c-18 21
-22 31 -13 37 16 9 24 0 32 -37z m-291 -76 c3 -17 6 -46 6 -63 l-1 -31 -31 35
c-25 29 -78 127 -78 145 0 3 22 -9 49 -25 36 -23 50 -38 55 -61z m310 -14 c9
-40 16 -105 11 -105 -20 0 -101 181 -87 195 8 8 71 -65 76 -90z m-2295 22 c1
-11 -11 -23 -31 -32 -18 -7 -34 -12 -36 -10 -5 4 27 76 41 93 10 12 13 11 18
-9 4 -13 7 -32 8 -42z m166 -19 c-6 -57 -11 -67 -53 -110 -25 -26 -48 -45 -52
-43 -7 5 -34 144 -29 149 9 8 125 65 132 66 5 0 6 -28 2 -62z m2071 -53 c7
-29 3 -30 -37 -9 -21 10 -29 20 -25 31 3 8 9 26 12 40 l6 24 19 -30 c10 -17
21 -42 25 -56z m-2390 19 c-3 -8 -10 -14 -16 -14 -14 0 -13 26 3 51 12 20 12
20 15 -1 2 -12 1 -28 -2 -36z m2232 16 c34 -19 62 -41 62 -48 0 -27 -33 -143
-40 -140 -4 2 -26 25 -49 51 -34 40 -41 56 -41 90 0 23 -3 53 -7 66 -7 27 -8
27 75 -19z m-2060 -42 c29 -119 29 -117 -38 -183 l-61 -60 -19 25 c-33 41 -33
65 -6 148 25 73 30 81 64 95 20 8 40 15 43 16 4 1 11 -18 17 -41z m179 -24
c-18 -39 -23 -43 -25 -24 -3 18 30 70 45 70 1 0 -7 -21 -20 -46z m2151 6 c9
-24 8 -30 -2 -30 -15 0 -26 21 -26 51 0 27 16 16 28 -21z m-134 -13 c36 -20
41 -28 58 -92 23 -90 22 -99 -5 -140 l-23 -34 -61 62 -61 62 20 83 c11 45 23
82 26 82 4 0 25 -10 46 -23z m-2343 -48 c-16 -43 -20 -48 -20 -26 -1 27 26 93
35 85 2 -3 -5 -29 -15 -59z m2127 -15 c-3 -27 -5 -25 -26 26 l-23 55 26 -26
c19 -19 26 -34 23 -55z m-1858 -12 c-5 -28 -20 -73 -33 -99 l-24 -47 -11 60
-10 59 41 42 c22 24 42 41 44 39 2 -1 -1 -26 -7 -54z m2169 -42 c-1 -33 -1
-33 -15 15 -17 63 -17 77 1 45 8 -14 14 -41 14 -60z m-214 -29 c2 -9 -1 -41
-8 -71 l-12 -55 -22 50 c-12 28 -25 75 -29 105 l-7 55 37 -34 c20 -19 38 -42
41 -50z m-2295 59 c0 -5 -9 -24 -20 -42 -21 -35 -24 -30 -14 21 6 28 34 46 34
21z m30 -32 c-1 -35 -21 -149 -31 -174 l-12 -29 -7 25 c-15 47 -10 99 12 145
21 44 38 58 38 33z m221 -25 c0 -10 4 -39 8 -64 7 -41 4 -54 -25 -110 l-32
-63 -37 73 -37 74 53 53 c57 58 69 64 70 37z m2343 -9 c3 -9 6 -28 6 -42 -1
-26 -1 -26 -19 8 -18 34 -19 50 -1 50 4 0 11 -7 14 -16z m-2511 -44 c18 -30
18 -30 -10 -54 -27 -24 -28 -24 -31 -4 -5 27 7 88 16 88 4 0 16 -13 25 -30z
m2488 -17 c16 -38 19 -59 14 -100 -7 -56 -18 -74 -30 -45 -10 23 -19 192 -11
192 4 0 16 -21 27 -47z m-192 -17 l53 -54 -38 -66 c-22 -36 -41 -66 -44 -66
-3 0 -18 25 -33 56 -26 53 -27 58 -15 120 6 35 14 64 18 64 3 0 30 -24 59 -54z
m-2065 -18 c-9 -58 -23 -83 -24 -41 0 28 17 83 27 83 2 0 0 -19 -3 -42z m2205
-58 l1 -35 -31 32 -32 31 24 33 24 34 6 -30 c4 -17 7 -46 8 -65z m-2363 -21
l35 -70 -42 -74 -42 -74 -40 31 -39 31 4 89 c4 86 5 89 39 117 19 16 37 27 42
24 4 -2 23 -36 43 -74z m2107 -12 l-7 -32 -7 40 c-5 22 -8 51 -8 65 0 23 1 22
14 -8 9 -20 12 -45 8 -65z m-2303 36 c0 -14 -6 -23 -15 -23 -16 0 -18 12 -8
48 4 18 8 20 14 10 5 -7 9 -23 9 -35z m322 -70 c1 -26 -2 -68 -7 -93 l-7 -44
-28 54 -28 54 26 53 c30 60 41 54 44 -24z m2207 33 l34 -35 -5 -82 c-5 -79 -6
-84 -39 -111 -18 -15 -36 -28 -39 -28 -3 0 -23 34 -43 75 l-38 75 41 70 c22
38 44 70 48 70 5 0 23 -15 41 -34z m131 -28 c0 -19 -5 -28 -16 -28 -12 0 -15
6 -10 23 3 12 6 31 6 42 0 32 20 -4 20 -37z m-2609 -23 c-5 -48 -8 -54 -12
-29 -5 28 8 101 16 93 1 -2 0 -31 -4 -64z m2306 -15 l20 -46 -27 -48 c-15 -26
-31 -43 -34 -38 -9 15 -10 122 -2 160 9 39 16 34 43 -28z m230 -83 c-14 -54
-19 -40 -10 29 5 45 8 53 13 34 3 -14 2 -42 -3 -63z m-2314 2 c24 -56 25 -65
15 -117 -6 -31 -14 -60 -17 -64 -4 -4 -30 19 -59 51 l-52 59 38 66 c20 36 40
66 43 66 3 0 18 -27 32 -61z m-277 15 c-3 -9 -6 -28 -6 -42 0 -21 -2 -24 -10
-12 -16 25 -12 70 6 70 11 0 14 -5 10 -16z m39 -21 c4 -10 9 -58 11 -108 l4
-90 -26 53 c-22 45 -24 60 -19 107 7 56 17 69 30 38z m309 -48 c6 -58 6 -59
-9 -32 -11 18 -14 39 -9 63 3 19 8 34 9 32 1 -2 5 -30 9 -63z m2080 -2 c20
-37 36 -70 36 -74 0 -4 -27 -30 -59 -58 l-59 -51 -10 67 c-9 66 -9 70 22 125
17 32 32 58 33 58 1 0 18 -30 37 -67z m-2315 3 c23 -24 23 -25 5 -55 -10 -17
-21 -31 -25 -31 -8 0 -19 52 -19 86 0 30 11 30 39 0z m2551 12 c0 -27 -13 -58
-21 -52 -16 9 -10 64 6 64 8 0 15 -6 15 -12z m-375 -95 c-15 -28 -15 -27 -9
22 8 63 18 80 22 38 2 -18 -4 -45 -13 -60z m329 56 c3 -17 6 -42 6 -56 0 -34
-40 -124 -52 -117 -16 10 15 204 33 204 3 0 9 -14 13 -31z m-74 -94 l-11 -29
-21 34 -20 34 28 25 29 25 3 -30 c2 -17 -2 -43 -8 -59z m-2327 15 l55 -59 -20
-78 c-11 -43 -22 -80 -24 -82 -2 -2 -22 4 -44 14 -34 15 -41 24 -54 69 -35
121 -34 118 -8 159 14 20 28 37 32 37 4 0 33 -27 63 -60z m126 15 c17 -39 39
-155 29 -155 -2 0 -21 20 -42 45 l-37 45 11 55 c6 30 13 55 15 55 2 0 13 -20
24 -45z m1979 -56 l8 -55 -44 -50 -43 -49 6 50 c6 45 53 170 61 162 2 -1 7
-28 12 -58z m-2300 8 c11 -25 10 -28 -5 -25 -12 2 -19 14 -21 38 -4 38 7 33
26 -13z m2502 -42 c0 -5 -10 -44 -23 -85 -22 -71 -25 -76 -67 -96 -52 -25 -50
-28 -70 80 l-13 69 63 61 62 60 24 -40 c13 -21 24 -43 24 -49z m105 -7 c-8
-38 -20 -54 -29 -39 -7 10 19 71 30 71 3 0 3 -15 -1 -32z m-2516 -73 c0 -5 -6
1 -14 15 -8 14 -14 39 -14 55 0 27 2 25 15 -15 7 -25 14 -49 13 -55z m273 -89
c2 -34 3 -63 1 -65 -3 -5 -85 38 -115 61 l-22 16 18 78 19 79 48 -55 c44 -50
48 -59 51 -114z m2138 51 c-12 -18 -19 -24 -16 -13 4 10 12 39 19 65 12 45 12
46 15 13 2 -21 -4 -44 -18 -65z m-2089 -7 c9 -25 9 -25 -16 3 -16 18 -25 40
-25 60 l1 32 15 -35 c9 -19 20 -46 25 -60z m1912 18 c4 -24 9 -57 13 -74 6
-31 4 -33 -66 -68 l-72 -37 7 68 c6 63 10 71 52 115 26 26 49 45 53 43 4 -3
10 -24 13 -47z m-144 -54 c-31 -34 -34 -24 -7 31 22 45 23 46 26 20 2 -18 -4
-35 -19 -51z m-2135 34 c3 -13 6 -32 5 -43 0 -15 -5 -11 -18 15 -11 19 -17 38
-14 42 8 15 21 8 27 -14z m57 -30 c30 -59 60 -148 49 -148 -5 0 -24 19 -43 43
-26 31 -36 55 -40 95 -7 63 5 67 34 10z m99 -22 c-1 -6 -7 -24 -14 -41 l-14
-30 -21 45 c-30 65 -28 73 14 53 19 -9 35 -21 35 -27z m272 -90 c10 -26 14
-46 10 -44 -4 2 -26 14 -49 28 -43 25 -53 48 -53 114 l1 31 37 -41 c20 -23 45
-62 54 -88z m2078 86 c0 -10 -7 -27 -15 -38 -14 -18 -14 -17 -15 12 0 17 3 34
7 37 12 13 23 7 23 -11z m-366 -56 c-7 -56 -8 -58 -58 -86 -27 -16 -52 -28
-54 -26 -11 12 102 179 116 171 1 -1 -1 -28 -4 -59z m314 12 c-10 -51 -71
-144 -88 -133 -17 11 67 185 89 185 4 0 4 -23 -1 -52z m-2200 2 l69 -40 6 -82
c3 -46 4 -85 2 -87 -2 -2 -24 0 -49 3 -42 7 -47 11 -91 82 -45 71 -46 76 -34
112 13 40 18 52 24 52 2 0 34 -18 73 -40z m2126 -7 c-9 -21 -18 -44 -21 -50
-8 -20 -20 -15 -27 10 -11 41 -6 55 22 65 42 16 43 15 26 -25z m-64 -48 l13
-45 -47 -71 c-49 -74 -50 -74 -108 -83 l-38 -5 1 42 c0 23 4 62 7 87 7 44 9
46 77 82 39 21 73 38 76 38 4 0 12 -20 19 -45z m-2231 -60 c-13 -12 -39 20
-39 47 0 16 4 15 24 -9 16 -19 21 -31 15 -38z m324 21 c46 -29 57 -43 75 -91
12 -31 22 -60 22 -65 0 -7 -138 25 -147 34 -7 7 -16 156 -10 156 4 0 31 -15
60 -34z m99 -18 l33 -42 -32 19 c-18 10 -37 32 -42 47 -13 36 -2 29 41 -24z
m-322 -43 l24 -40 -24 20 c-12 11 -29 34 -36 52 -28 65 -14 53 36 -32z m1819
33 c-12 -25 -48 -57 -64 -58 -5 0 9 18 30 40 45 46 50 49 34 18z m116 -55 c-4
-43 -9 -80 -11 -82 -5 -5 -147 -31 -151 -27 -2 2 8 30 22 62 23 53 33 63 83
92 31 17 59 32 60 32 2 0 1 -35 -3 -77z m295 27 c-13 -31 -24 -37 -35 -19 -7
11 34 63 43 54 3 -2 -1 -18 -8 -35z m-97 -25 c-10 -21 -28 -45 -41 -53 -19
-13 -16 -5 15 40 21 31 39 55 41 53 2 -2 -5 -20 -15 -40z m-1715 -54 c7 -9 21
-28 32 -42 l19 -25 -60 15 c-59 15 -60 16 -79 69 -11 29 -20 55 -20 58 0 8 93
-58 108 -75z m1348 -13 c-21 -47 -28 -54 -67 -66 -64 -18 -73 -13 -42 26 23
30 107 91 125 92 4 0 -4 -24 -16 -52z m-1778 -3 c19 -42 13 -52 -13 -22 -14
16 -23 33 -20 38 10 16 21 10 33 -16z m68 -17 c51 -54 88 -107 80 -115 -13
-14 -92 54 -113 97 -37 75 -27 81 33 18z m82 26 c14 -4 17 -74 3 -74 -11 0
-71 70 -71 82 0 7 31 4 68 -8z m133 -29 l66 -17 27 -76 c14 -43 26 -80 26 -84
0 -5 -24 -8 -52 -8 -50 1 -56 4 -115 58 l-61 58 5 47 c5 38 9 47 22 43 9 -3
46 -12 82 -21z m284 -53 c-10 -10 -56 14 -74 39 l-22 30 49 -33 c28 -18 49
-34 47 -36z m1465 40 c0 -5 -17 -26 -37 -46 l-38 -38 -3 38 c-2 23 2 40 10 45
17 11 68 11 68 1z m70 3 c0 -2 -10 -25 -22 -50 -16 -32 -37 -55 -70 -75 -54
-34 -61 -24 -21 29 42 56 113 117 113 96z m45 -6 c7 -10 -21 -49 -36 -49 -4 0
-3 14 2 30 11 31 23 38 34 19z m-530 -28 c-17 -16 -43 -32 -60 -35 -25 -5 -20
0 25 29 67 42 73 43 35 6z m316 16 c-1 -4 -1 -26 -1 -49 -1 -41 -4 -46 -67
-96 -63 -50 -69 -53 -107 -46 -23 3 -44 8 -48 10 -4 3 8 39 25 82 l33 77 74
16 c78 18 92 19 91 6z m-1488 -14 c51 -14 64 -23 98 -68 21 -28 39 -55 39 -58
0 -4 -36 -7 -79 -7 l-79 0 -20 58 c-11 31 -23 65 -27 75 -9 21 -6 21 68 0z
m1297 -16 c0 -9 -53 -133 -59 -140 -4 -4 -42 -4 -85 0 l-76 8 41 50 c35 43 49
52 102 67 66 18 77 20 77 15z m-1132 -35 c26 -10 66 -31 87 -45 l40 -27 -65 0
-65 1 -33 44 c-36 50 -33 53 36 27z m930 -44 c-35 -42 -37 -43 -104 -46 l-69
-2 47 31 c39 26 114 54 152 58 5 1 -7 -18 -26 -41z m-1398 -10 c0 -16 -18 -16
-32 0 -32 37 -32 45 1 26 17 -10 31 -22 31 -26z m134 -46 c-4 -6 -58 32 -76
53 -35 40 -17 37 30 -6 26 -24 47 -45 46 -47z m555 32 c2 -2 -12 -4 -31 -4
-21 0 -46 8 -59 20 l-24 20 55 -16 c30 -9 57 -18 59 -20z m551 12 c0 -2 -11
-11 -25 -20 -17 -11 -34 -14 -52 -9 -28 7 -28 7 12 19 42 13 65 17 65 10z
m534 -22 c-15 -22 -62 -54 -80 -54 -6 0 87 79 94 80 1 0 -5 -11 -14 -26z m107
8 c-16 -30 -40 -47 -52 -35 -7 7 0 17 23 31 42 26 41 25 29 4z m-1378 -84 c24
-35 47 -68 50 -74 4 -7 -12 -18 -40 -29 l-46 -18 -78 38 c-73 36 -78 41 -88
81 -6 24 -11 45 -11 48 0 3 30 7 68 9 37 2 75 4 84 5 11 1 33 -21 61 -60z
m176 20 c36 -27 50 -43 40 -46 -7 -3 -42 -15 -77 -27 l-62 -23 -45 65 c-25 35
-45 66 -45 68 0 3 30 5 67 5 62 0 69 -2 122 -42z m146 22 c49 -17 50 -18 24
-28 -70 -28 -95 -26 -145 12 l-47 36 59 -1 c32 0 82 -9 109 -19z m114 9 l26
-1 -26 -9 c-20 -7 -36 -6 -60 6 l-34 15 34 -5 c18 -3 45 -5 60 -6z m-654 -77
c-5 -6 -49 19 -73 42 l-24 21 39 5 c36 5 39 3 49 -30 6 -19 10 -36 9 -38z
m875 74 c0 -2 -22 -18 -50 -36 l-50 -32 -50 17 c-27 9 -50 20 -50 24 0 13 72
28 138 30 34 0 62 -1 62 -3z m170 -13 c0 -7 -79 -111 -91 -118 -8 -6 -149 47
-149 55 0 3 22 19 48 37 42 28 55 32 120 32 39 1 72 -2 72 -6z m-1065 -89 c22
-18 37 -35 34 -38 -3 -3 -29 2 -58 11 -38 13 -61 28 -86 59 -19 23 -32 44 -28
47 8 9 90 -38 138 -79z m1261 73 c3 -3 0 -24 -7 -47 -13 -44 -32 -58 -132 -95
-46 -17 -49 -17 -88 0 -46 21 -46 24 13 101 l43 55 83 -5 c46 -2 85 -6 88 -9z
m-1396 -39 l23 -32 -33 20 c-36 21 -50 44 -28 44 8 0 25 -14 38 -32z m844 9
l67 -23 -66 -47 -67 -48 -63 48 c-34 26 -61 50 -58 53 3 4 96 36 114 39 3 1
35 -9 73 -22z m656 16 c0 -9 -56 -49 -82 -59 -21 -7 -21 -6 -7 35 10 28 15 31
50 31 21 0 39 -3 39 -7z m52 -40 c-11 -16 -29 -36 -40 -46 -21 -19 -122 -50
-122 -38 0 21 136 107 173 110 5 1 0 -11 -11 -26z m58 -3 c0 -11 -48 -45 -55
-38 -3 2 2 14 11 26 15 22 44 30 44 12z m-916 -52 l68 -52 -38 -31 -37 -32
-86 14 c-47 8 -88 17 -92 21 -3 4 -15 23 -27 43 l-22 36 73 26 c39 14 77 26
83 26 6 1 42 -22 78 -51z m340 8 l57 -26 -18 -31 c-27 -46 -36 -50 -122 -61
-80 -9 -81 -9 -116 19 -19 15 -35 31 -35 35 0 4 28 28 63 53 70 52 77 52 171
11z m-739 -44 c-8 -8 -73 20 -91 39 -17 19 -12 18 38 -7 32 -15 56 -30 53 -32z
m-156 17 c31 -11 39 -23 22 -34 -5 -3 -22 6 -38 20 -32 28 -29 30 16 14z m341
-53 c0 -9 -39 -2 -84 16 l-28 11 33 18 34 18 22 -27 c13 -15 23 -31 23 -36z
m857 39 c-15 -14 -36 -25 -47 -25 -10 0 -27 -2 -37 -5 -10 -3 9 8 42 24 74 36
77 37 42 6z m-185 -11 c25 -13 28 -18 16 -25 -19 -11 -98 -28 -98 -22 0 7 41
63 46 63 3 0 19 -7 36 -16z m303 -4 c-12 -19 -63 -41 -70 -29 -9 14 -2 20 37
29 18 4 34 8 36 9 2 1 0 -4 -3 -9z m-1043 -40 c35 -10 72 -26 83 -34 19 -14
15 -15 -41 -16 -52 0 -67 4 -102 30 -23 17 -42 32 -42 35 0 10 40 4 102 -15z
m400 -8 c25 -21 13 -32 -37 -32 -54 0 -63 12 -29 39 27 21 35 20 66 -7z m-487
-17 l30 -25 -30 6 c-39 9 -45 12 -45 30 0 20 11 18 45 -11z m915 17 c0 -4 -20
-19 -45 -35 -35 -21 -59 -27 -100 -27 -30 0 -55 4 -55 9 0 17 120 56 183 60 9
1 17 -2 17 -7z m-635 -26 c56 -13 58 -14 20 -15 -22 0 -53 6 -70 14 -38 17
-25 17 50 1z m390 -11 c-34 -16 -94 -20 -79 -6 7 8 32 13 99 19 6 0 -3 -6 -20
-13z m279 6 c3 -5 -8 -14 -26 -20 -46 -16 -56 -13 -28 9 27 21 46 25 54 11z
m-431 -27 c20 -4 37 -10 37 -14 0 -12 -98 -33 -128 -27 -15 3 -40 11 -57 17
-23 9 -26 13 -15 20 17 11 107 13 163 4z m-323 -19 c0 -19 -30 -19 -56 0 -18
13 -17 14 19 15 26 0 37 -4 37 -15z m565 -15 c-28 -12 -65 -12 -65 0 0 6 19
10 43 9 32 0 37 -2 22 -9z m-370 -21 c5 -5 -5 -9 -27 -9 -36 0 -54 11 -41 24
9 8 54 -2 68 -15z m185 6 c0 -11 -11 -15 -42 -14 l-43 1 35 13 c46 18 50 18
50 0z"/>
<path d="M2238 2727 c-2 -266 -2 -491 0 -500 2 -10 8 -15 13 -12 13 8 12 995
-1 995 -6 0 -11 -176 -12 -483z"/>
<path d="M2568 2930 c22 -9 22 -12 22 -188 0 -187 -1 -194 -45 -205 -11 -2 18
-5 65 -5 47 0 76 3 65 5 -40 10 -45 23 -45 109 0 45 4 85 9 88 23 15 65 -20
131 -109 l70 -95 53 0 52 0 -40 19 c-28 12 -55 39 -90 87 -27 38 -62 81 -77
96 l-28 26 65 81 c46 57 75 83 98 90 28 8 24 9 -33 10 -41 0 -60 -3 -51 -8 18
-11 14 -21 -48 -108 -44 -63 -56 -73 -81 -73 l-30 0 0 78 c0 80 5 95 30 105 8
3 -14 5 -50 6 -49 0 -59 -3 -42 -9z"/>
<path d="M1695 2828 c-38 -16 -81 -34 -95 -40 l-25 -10 30 -15 c44 -24 312
-25 356 -2 l31 16 -97 41 c-53 23 -104 42 -113 41 -9 0 -48 -14 -87 -31z"/>
<path d="M1982 2730 c0 -19 2 -27 5 -17 2 9 2 25 0 35 -3 9 -5 1 -5 -18z"/>
<path d="M1703 2733 c-31 -4 -33 -7 -33 -43 0 -38 1 -39 26 -30 14 6 54 10 89
10 35 0 75 -4 89 -10 25 -9 26 -8 26 25 0 18 -5 37 -10 40 -14 9 -146 14 -187
8z"/>
<path d="M1976 2683 c-11 -11 -6 -23 9 -23 8 0 15 4 15 9 0 13 -16 22 -24 14z"/>
<path d="M1976 2635 c-11 -29 -7 -55 9 -55 16 0 20 36 6 58 -7 11 -10 10 -15
-3z"/>
<path d="M758 1111 c10 -6 13 -30 10 -90 -2 -67 0 -81 12 -81 12 0 14 14 12
81 -3 60 0 84 10 90 8 6 1 9 -22 9 -23 0 -30 -3 -22 -9z"/>
<path d="M855 1110 c4 -6 -1 -23 -10 -38 l-16 -27 23 26 c13 14 32 31 43 37
18 10 17 11 -13 12 -21 0 -31 -4 -27 -10z"/>
<path d="M979 1091 c12 -16 32 -52 45 -80 15 -33 26 -46 29 -37 3 8 -8 40 -24
70 -17 31 -28 60 -24 66 4 6 -5 10 -20 10 l-26 0 20 -29z"/>
<path d="M1086 1113 c5 -5 11 -12 15 -16 3 -4 12 -1 19 8 11 13 9 15 -15 15
-16 0 -24 -3 -19 -7z"/>
<path d="M1178 1112 c10 -7 13 -31 10 -91 -2 -67 0 -81 12 -81 12 0 14 14 12
80 -3 68 -1 81 14 87 47 18 70 -61 24 -84 -14 -7 -18 -13 -10 -13 26 0 60 30
60 53 0 39 -16 50 -77 54 -37 3 -53 1 -45 -5z"/>
<path d="M1465 1113 c11 -3 28 -12 38 -21 15 -14 17 -14 17 0 0 18 -21 29 -53
27 -21 -1 -21 -2 -2 -6z"/>
<path d="M1687 1109 c20 -6 38 -21 48 -39 19 -36 19 -57 0 -95 l-15 -30 25 28
c34 39 33 81 -4 118 -20 19 -39 29 -58 28 l-28 -1 32 -9z"/>
<path d="M1838 1111 c10 -6 13 -30 10 -90 -2 -67 0 -81 12 -81 12 0 14 15 12
85 -3 81 -2 85 18 85 26 0 37 -26 22 -51 -10 -15 -8 -23 8 -39 24 -24 25 -43
4 -64 -8 -9 -11 -16 -5 -16 12 0 41 40 41 57 0 7 -9 21 -21 32 -13 12 -17 21
-10 26 18 10 13 43 -8 55 -24 12 -102 14 -83 1z"/>
<path d="M2086 1104 c-3 -8 1 -22 9 -30 21 -21 19 -34 -5 -34 -14 0 -18 5 -14
18 3 9 -2 4 -11 -11 -9 -16 -14 -31 -11 -35 3 -3 6 0 6 6 0 7 13 12 30 12 24
0 33 -7 49 -39 11 -21 17 -41 14 -45 -4 -3 3 -6 15 -6 21 0 20 5 -23 90 -25
50 -47 90 -49 90 -2 0 -7 -7 -10 -16z"/>
<path d="M2328 1110 c29 -12 32 -70 3 -70 -25 0 -45 25 -38 50 3 11 1 20 -4
20 -5 0 -12 -12 -15 -27 -6 -21 -2 -30 15 -41 l21 -15 -36 -43 c-21 -27 -30
-44 -22 -44 8 0 28 20 46 45 17 25 37 45 43 45 7 0 10 -16 7 -45 -2 -31 1 -45
9 -45 10 0 13 23 13 84 0 58 4 86 13 89 6 3 -8 5 -33 6 -37 0 -41 -2 -22 -9z"/>
<path d="M2548 1111 c10 -6 13 -30 10 -90 -2 -67 0 -81 12 -81 12 0 14 15 12
85 l-3 85 25 0 c49 0 59 -71 13 -90 -18 -7 -18 -9 -4 -9 23 -1 57 34 57 58 0
29 -39 51 -90 51 -28 0 -40 -3 -32 -9z"/>
<path d="M2786 1112 c-3 -6 1 -23 9 -38 13 -26 13 -29 -1 -32 -9 -2 -20 1 -24
8 -5 8 -9 7 -14 -5 -3 -9 -6 -18 -6 -19 0 -1 15 0 34 2 31 4 34 1 52 -42 11
-28 25 -46 35 -46 13 0 6 19 -29 88 -53 102 -48 96 -56 84z"/>
<path d="M2955 1030 c0 -73 3 -90 15 -90 12 0 14 15 12 85 l-3 85 28 0 c16 0
35 -6 42 -12 11 -11 13 -10 9 2 -3 10 -21 16 -54 18 l-49 3 0 -91z"/>
<path d="M3237 1109 c20 -6 38 -21 48 -39 19 -36 19 -57 0 -95 l-15 -30 25 28
c34 39 33 81 -4 118 -20 19 -39 29 -58 28 l-28 -1 32 -9z"/>
<path d="M3370 1105 c0 -12 4 -13 19 -4 10 7 26 9 35 6 15 -6 17 -19 14 -87
-2 -59 0 -80 10 -80 9 0 12 24 12 85 0 82 1 85 23 85 13 0 28 -5 35 -12 9 -9
12 -8 12 5 0 15 -11 17 -80 17 -65 0 -80 -3 -80 -15z"/>
<path d="M3630 1096 c-5 -14 -14 -36 -19 -49 -8 -21 -7 -22 24 -19 29 3 36 0
49 -26 9 -17 16 -38 16 -47 0 -8 8 -15 18 -15 16 0 12 12 -26 87 -24 48 -45
90 -47 92 -3 2 -9 -8 -15 -23z m24 -32 c9 -23 8 -24 -14 -24 -11 0 -20 2 -20
4 0 12 13 36 20 36 4 0 11 -7 14 -16z"/>
<path d="M1377 1082 c-26 -28 -22 -88 8 -117 13 -14 31 -25 39 -25 9 0 4 10
-15 29 -31 31 -38 75 -19 112 13 24 8 24 -13 1z"/>
<path d="M1597 1082 c-36 -39 -5 -143 41 -141 11 0 12 2 4 6 -34 14 -56 115
-30 141 7 7 10 12 7 12 -3 0 -13 -8 -22 -18z"/>
<path d="M3147 1082 c-36 -39 -5 -143 41 -141 11 0 12 2 4 6 -34 14 -56 115
-30 141 7 7 10 12 7 12 -3 0 -13 -8 -22 -18z"/>
<path d="M818 1034 c-10 -9 61 -94 78 -94 10 0 6 9 -10 28 -13 15 -33 37 -43
50 -10 13 -21 20 -25 16z"/>
<path d="M3028 1030 c28 -12 31 -64 5 -79 -10 -6 -13 -11 -6 -11 19 0 43 30
43 54 0 28 -18 46 -44 45 -20 0 -20 -1 2 -9z"/>
<path d="M3577 975 c-16 -35 -16 -35 6 -35 16 0 18 3 8 9 -10 7 -11 13 -1 31
6 12 10 24 8 26 -3 2 -12 -12 -21 -31z"/>
<path d="M2730 981 c0 -5 -7 -17 -16 -25 -14 -15 -14 -16 3 -16 12 0 18 8 19
25 1 14 0 25 -2 25 -2 0 -4 -4 -4 -9z"/>
<path d="M2022 960 c-11 -17 -10 -20 7 -20 14 0 18 5 14 20 -3 11 -6 20 -7 20
-1 0 -7 -9 -14 -20z"/>
<path d="M1496 954 c-17 -12 -17 -14 -4 -14 9 0 20 5 23 11 11 17 2 18 -19 3z"/>
<path d="M1000 950 c0 -5 7 -10 16 -10 8 0 12 5 9 10 -3 6 -10 10 -16 10 -5 0
-9 -4 -9 -10z"/>
<path d="M643 614 c8 -8 3166 -8 3174 0 4 3 -711 6 -1587 6 -876 0 -1590 -3
-1587 -6z"/>
</g>
</svg>
